<?xml version="1.0" standalone="no"?>
<!DOCTYPE svg PUBLIC "-//W3C//DTD SVG 20010904//EN"
 "http://www.w3.org/TR/2001/REC-SVG-20010904/DTD/svg10.dtd">
<svg version="1.0" xmlns="http://www.w3.org/2000/svg"
 width="654.000000pt" height="381.000000pt" viewBox="0 0 654.000000 381.000000"
 preserveAspectRatio="xMidYMid meet">

<g transform="translate(0.000000,381.000000) scale(0.100000,-0.100000)"
fill="#000000" stroke="none">
<path d="M4200 3762 c-23 -23 -27 -31 -17 -42 10 -10 9 -11 -2 -5 -11 6 -13 4
-8 -9 5 -13 3 -16 -11 -12 -12 4 -32 -9 -64 -42 -44 -44 -48 -52 -59 -122 -15
-102 -59 -303 -67 -312 -14 -14 -111 29 -134 58 -12 16 -24 32 -28 36 -3 4
-48 -34 -99 -86 l-93 -93 34 -35 c23 -25 51 -40 93 -52 33 -10 71 -22 85 -28
14 -7 47 -14 73 -17 l49 -6 2 -245 c2 -243 13 -349 42 -417 8 -17 14 -40 14
-51 0 -11 11 -27 26 -36 l25 -17 85 83 c47 46 113 117 146 158 l61 75 -61 -57
c-33 -32 -64 -58 -69 -58 -16 0 -33 24 -33 45 0 12 -6 35 -14 51 -16 33 -36
239 -36 375 l0 89 56 0 c74 0 136 29 203 96 29 30 50 54 46 54 -4 0 15 19 44
42 28 23 51 46 51 51 0 5 -7 3 -16 -4 -9 -7 -26 -18 -38 -24 -11 -7 -20 -16
-19 -22 1 -6 -9 -9 -22 -7 -14 1 -27 -1 -30 -6 -3 -4 -26 -6 -52 -5 -34 3 -50
-1 -61 -13 -13 -16 -13 -16 -8 1 3 9 1 17 -4 17 -9 0 -14 -14 -11 -32 0 -5 -4
-8 -10 -8 -6 0 -8 8 -4 19 5 16 0 19 -37 19 -90 1 -82 -12 -74 119 3 64 17
167 31 228 13 60 29 141 35 180 6 38 16 75 22 82 21 26 -12 13 -42 -15z m-33
-97 c0 -8 -4 -12 -9 -9 -5 3 -6 10 -3 15 9 13 12 11 12 -6z m-17 -47 c0 -25
-3 -29 -10 -18 -8 12 -10 12 -10 1 0 -8 -2 -12 -5 -9 -4 4 16 58 23 58 1 0 2
-15 2 -32z m-20 -53 c-7 -9 -10 -25 -6 -41 5 -17 3 -23 -4 -19 -14 8 -13 48 2
63 17 17 23 15 8 -3z m-4 -110 c9 -39 0 -30 -15 15 -6 19 -7 30 -2 25 5 -6 13
-23 17 -40z m-22 -30 c-4 -15 -2 -25 5 -25 6 0 11 -5 11 -11 0 -8 -5 -8 -15 1
-17 14 -21 60 -5 60 6 0 8 -11 4 -25z m-14 -44 c0 -5 9 -11 20 -14 11 -3 20
-10 20 -17 0 -6 -13 -2 -30 10 -32 22 -37 30 -20 30 6 0 10 -4 10 -9z m16 -48
c-6 -6 -36 9 -36 18 0 5 9 4 20 -3 10 -7 18 -14 16 -15z m-20 -28 c-3 -20 -16
-31 -16 -13 0 13 8 28 16 28 1 0 1 -7 0 -15z m1 -46 c-9 -6 -14 -16 -11 -22 4
-7 3 -8 -1 -4 -12 10 -16 39 -5 32 5 -3 12 0 15 6 4 5 10 7 13 4 4 -4 -1 -11
-11 -16z m-320 -23 c-3 -8 2 -16 14 -19 10 -3 19 -1 19 4 0 5 -5 9 -12 9 -6 0
-9 2 -7 5 8 7 49 -7 49 -17 0 -5 -4 -6 -10 -3 -5 3 -10 4 -10 1 0 -3 10 -10
22 -17 19 -10 20 -9 14 7 -6 15 -5 17 6 6 18 -18 -20 -56 -42 -41 -13 9 -12
10 3 5 38 -12 14 14 -28 30 -36 13 -43 19 -34 30 15 18 23 18 16 0z m303 -21
c5 3 12 0 16 -6 5 -8 3 -9 -6 -4 -10 6 -12 4 -7 -8 4 -10 2 -14 -6 -11 -7 2
-13 15 -14 27 0 12 1 16 4 9 3 -6 9 -10 13 -7z m-285 -25 c3 -6 -1 -7 -9 -4
-18 7 -21 14 -7 14 6 0 13 -4 16 -10z m102 -27 c-11 -10 -26 8 -20 23 5 15 7
14 15 -1 6 -9 7 -19 5 -22z m29 15 c6 -19 7 -19 16 -5 5 10 14 17 21 17 7 0 6
-4 -3 -10 -8 -5 -10 -10 -5 -10 6 0 3 -5 -5 -10 -13 -8 -13 -10 2 -10 10 0 22
9 28 20 6 11 16 18 22 14 6 -4 -1 -16 -18 -30 -24 -22 -29 -23 -44 -9 -9 8
-20 12 -25 8 -4 -5 -5 -2 -1 5 4 7 2 19 -4 27 -8 10 -9 15 -2 15 6 0 14 -10
18 -22z m134 -18 c-8 -6 -22 -10 -30 -10 -8 0 -4 6 10 13 27 15 44 12 20 -3z
m55 -1 c-26 -7 -24 -8 17 -6 25 1 44 -1 41 -5 -2 -5 8 -8 22 -8 15 0 24 4 20
10 -3 6 -2 10 4 10 5 0 12 -6 14 -12 4 -10 8 -9 16 2 8 11 11 11 11 2 0 -21
-26 -25 -105 -15 -57 7 -75 6 -75 -3 0 -19 -32 -26 -48 -10 -12 12 -10 15 17
21 17 4 31 11 31 16 0 5 15 8 33 8 l32 -1 -30 -9z m313 -9 c-7 -10 -14 -17
-17 -15 -4 4 18 35 25 35 2 0 -1 -9 -8 -20z m-33 -10 c-3 -5 -16 -10 -28 -9
-21 0 -21 1 -2 9 28 12 37 12 30 0z m-331 -52 c-3 -4 -9 -8 -15 -8 -5 0 -9 4
-9 8 0 5 7 9 15 9 8 0 12 -4 9 -9z m-14 -31 c0 -7 -5 -18 -12 -25 -9 -9 -9
-12 0 -12 7 0 12 -4 12 -10 0 -16 -17 -11 -24 7 -4 9 -1 20 6 25 10 6 10 10
-2 18 -13 8 -12 10 3 10 9 0 17 -6 17 -13z m-7 -182 c2 -50 1 -79 -3 -65 -4
14 -9 57 -10 95 -1 53 -3 64 -10 48 -5 -13 -11 -23 -13 -23 -8 0 -3 35 7 46
17 19 23 -1 29 -101z m-42 18 c-8 -15 -10 -15 -11 -2 0 17 10 32 18 25 2 -3
-1 -13 -7 -23z m0 -101 c2 -23 0 -44 -2 -47 -3 -3 -7 18 -8 47 -2 61 7 62 10
0z m41 -31 c8 12 9 12 6 0 -2 -8 -12 -15 -22 -17 -12 -2 -16 2 -12 13 3 8 7
24 8 36 0 12 3 7 5 -12 4 -27 7 -31 15 -20z m-17 -51 c-4 -11 -2 -20 4 -20 6
0 12 10 12 23 l2 22 4 -23 c3 -13 9 -20 16 -16 7 3 3 -2 -7 -10 -36 -29 -61
-18 -44 20 14 29 22 32 13 4z m62 -65 c1 -16 1 -16 -3 -2 -3 9 -10 17 -16 17
-5 0 -8 -6 -5 -14 3 -8 1 -16 -5 -18 -13 -5 -2 -28 13 -28 6 0 7 5 4 10 -3 6
-1 10 5 10 7 0 9 -8 5 -20 -4 -14 -2 -19 7 -17 7 2 9 2 5 -1 -4 -2 0 -10 10
-18 13 -11 14 -14 3 -12 -8 2 -20 9 -26 17 -9 12 -11 8 -10 -17 1 -19 6 -32
14 -32 8 0 10 5 6 13 -4 6 -4 9 1 5 4 -4 17 -3 29 3 20 10 20 9 3 -5 -18 -14
-17 -15 10 -19 15 -3 6 -4 -22 -3 -47 1 -50 3 -47 25 2 15 0 21 -7 17 -6 -4
-11 -3 -11 3 0 5 5 13 11 16 7 5 4 15 -9 29 -28 31 -34 54 -14 59 30 8 47 2
49 -18z m30 -172 l26 -28 -7 28 c-4 16 -2 27 4 27 5 0 10 -9 10 -19 0 -11 4
-22 10 -26 11 -7 2 -35 -12 -35 -6 0 -4 8 3 17 12 15 12 16 -5 10 -13 -5 -25
0 -42 18 -13 14 -24 28 -24 31 0 10 13 2 37 -23z m57 1 c3 -8 2 -12 -4 -9 -6
3 -10 10 -10 16 0 14 7 11 14 -7z m15 -50 c-20 -25 -47 -35 -55 -22 -4 6 -3 8
3 5 14 -9 55 22 47 35 -4 7 -2 8 5 4 9 -6 9 -11 0 -22z"/>
<path d="M1962 3703 c-17 -23 -19 -33 -9 -43 9 -10 9 -11 -1 -6 -9 6 -11 -2
-8 -29 3 -21 2 -34 -1 -31 -3 3 -13 0 -22 -6 -12 -10 -12 -8 2 8 40 47 13 34
-43 -21 -38 -38 -60 -68 -60 -82 0 -21 -19 -81 -41 -128 -40 -86 -149 -439
-180 -585 -11 -52 -36 -141 -55 -197 -19 -55 -34 -108 -34 -115 0 -8 -12 -43
-26 -78 -17 -42 -24 -77 -22 -102 4 -43 10 -40 -100 -43 -35 -1 -67 -6 -70
-12 -4 -5 -18 -9 -32 -8 -14 1 -30 -5 -37 -14 -7 -9 -13 -12 -13 -7 0 5 7 18
16 28 16 16 15 18 -1 24 -10 4 -26 2 -37 -5 -16 -10 -19 -9 -16 6 2 13 -3 18
-19 18 -11 0 -25 3 -29 8 -4 4 -12 7 -18 7 -6 0 -4 -5 4 -11 12 -8 11 -9 -5
-6 -11 2 -19 9 -18 15 4 19 -10 14 -38 -12 -25 -23 -26 -23 -38 -4 -18 29 -31
117 -18 125 6 4 7 1 2 -7 -5 -8 -4 -11 2 -7 6 4 8 -4 5 -21 -5 -24 -4 -26 12
-13 13 11 14 16 4 22 -7 5 -9 9 -5 9 5 0 1 10 -7 22 -18 25 -21 42 -6 33 6 -3
10 5 10 19 0 25 1 25 69 19 61 -5 75 -3 127 22 32 15 64 34 72 41 7 8 18 14
24 14 16 0 229 220 239 247 5 14 9 59 9 101 0 75 -1 78 -38 118 -45 49 -103
84 -140 84 -45 0 -231 -151 -232 -188 0 -7 -4 -10 -10 -7 -5 3 -10 1 -10 -6 0
-7 -3 -10 -6 -6 -9 8 -85 -64 -78 -75 3 -5 0 -7 -8 -6 -7 2 -12 -5 -12 -14 1
-10 -3 -16 -10 -15 -6 1 -10 -8 -9 -20 2 -13 -2 -23 -8 -23 -5 0 -7 5 -4 10 3
6 2 10 -4 10 -5 0 -9 -9 -8 -20 1 -13 6 -19 15 -15 7 3 10 0 7 -6 -4 -6 -14
-8 -23 -4 -19 7 -92 -68 -92 -95 0 -10 -5 -22 -10 -25 -6 -3 -10 -29 -10 -57
0 -63 -7 -59 -20 12 -6 30 -16 61 -23 69 -7 9 -33 60 -57 114 -42 91 -53 107
-170 226 -69 70 -135 141 -147 157 -13 16 -33 42 -45 58 l-21 28 -14 -26 c-8
-15 -11 -31 -8 -36 3 -6 1 -10 -4 -10 -6 0 -12 5 -12 10 -4 33 -2 45 9 42 16
-3 16 15 0 20 -7 3 -5 7 6 11 11 5 15 3 10 -5 -4 -7 -3 -8 4 -4 7 4 12 14 12
22 0 8 -5 12 -11 9 -6 -4 -5 2 3 14 7 12 20 21 28 21 12 0 12 2 2 9 -8 4 -12
21 -10 37 3 24 9 29 43 37 65 14 128 4 169 -28 42 -32 41 -42 -2 -27 -30 10
-30 10 -27 -26 3 -40 14 -43 47 -12 16 14 25 17 39 9 23 -12 24 -17 2 -41 -14
-16 -14 -18 -1 -18 9 0 19 -7 22 -16 3 -8 10 -13 14 -10 5 3 18 -2 28 -10 10
-9 12 -12 4 -8 -12 5 -13 4 -3 -6 14 -15 45 10 141 112 62 65 62 74 2 143 -21
24 -41 52 -45 62 -22 64 -185 87 -270 38 -57 -34 -305 -280 -342 -340 -7 -11
-12 -51 -13 -88 0 -62 3 -74 34 -121 19 -28 67 -83 106 -121 68 -67 89 -88
153 -159 15 -17 44 -61 64 -98 20 -37 39 -65 43 -63 8 5 9 -9 16 -147 3 -65
10 -118 15 -118 5 0 8 5 7 11 -2 6 3 14 10 16 9 4 12 -17 12 -81 0 -96 -7
-104 -54 -61 -26 24 -27 27 -12 48 30 42 38 62 12 32 -14 -16 -25 -33 -26 -37
0 -3 -16 -12 -36 -18 -26 -9 -34 -16 -29 -28 4 -11 -3 -8 -21 8 l-26 25 6 -25
c7 -24 6 -24 -9 3 -9 15 -21 27 -27 27 -7 0 -6 -5 2 -15 19 -23 3 -18 -22 7
-17 17 -18 20 -4 15 14 -6 17 -3 12 9 -3 8 -6 21 -6 29 0 7 -10 16 -23 19 -21
7 -21 7 -2 16 11 5 14 9 7 9 -7 1 -10 6 -6 12 4 8 9 7 15 -2 4 -7 6 -16 3 -20
-6 -10 25 -33 47 -34 25 -2 24 6 -3 41 -13 15 -30 42 -39 59 -9 16 -24 29 -32
29 -9 -1 -13 5 -10 15 2 10 -7 21 -26 29 -33 14 -51 9 -51 -14 0 -8 -4 -14
-10 -14 -6 0 -5 10 2 25 10 23 20 29 40 26 10 -1 -3 31 -19 47 -7 7 -17 11
-21 8 -11 -7 -45 51 -37 64 3 6 12 10 18 10 9 0 9 -2 0 -8 -8 -5 -8 -14 3 -32
l15 -25 -6 25 c-6 24 -5 24 9 6 13 -16 16 -16 16 -5 0 9 -3 19 -7 23 -8 8 -14
34 -14 61 0 20 0 20 -15 1 -8 -11 -14 -23 -14 -28 0 -4 -5 -8 -12 -8 -9 0 -9
3 -1 11 8 8 5 23 -13 57 -13 25 -27 48 -30 51 -7 8 -174 -162 -174 -177 0 -8
6 -28 14 -45 7 -18 19 -47 26 -65 7 -19 18 -39 24 -46 18 -19 56 -75 56 -81 0
-6 42 -67 92 -134 15 -20 33 -50 41 -66 9 -20 31 -38 65 -54 29 -14 52 -28 52
-32 0 -15 68 -49 98 -49 54 0 78 17 201 138 l121 120 37 -34 c21 -19 49 -37
63 -40 14 -3 48 -12 75 -21 30 -10 99 -18 172 -21 116 -4 124 -3 170 22 26 15
68 46 93 71 25 24 50 44 56 45 6 0 17 -13 25 -29 8 -16 36 -47 62 -70 47 -40
50 -41 120 -41 69 0 104 10 143 42 37 30 171 153 196 181 l28 29 10 -28 c52
-136 117 -185 252 -192 106 -6 145 15 279 145 l106 103 29 -36 c120 -148 152
-173 228 -174 34 0 45 7 103 65 35 36 67 65 71 65 4 0 29 -18 55 -39 39 -32
60 -41 119 -51 62 -11 82 -10 147 5 182 43 178 41 270 132 111 109 121 125
121 193 0 50 -3 58 -33 85 -18 17 -69 48 -112 69 -112 53 -115 54 -160 60 -22
3 -58 14 -80 26 -21 11 -47 20 -56 20 -9 0 -30 7 -45 15 -16 8 -39 15 -51 15
-12 0 -29 8 -39 17 -18 18 -64 110 -64 129 0 17 88 0 162 -31 108 -46 100 -48
194 46 46 46 84 86 84 89 0 11 -68 43 -120 56 -64 16 -216 44 -244 44 -24 0
-222 -193 -247 -242 -24 -48 -24 -110 1 -183 23 -68 41 -91 78 -100 15 -3 66
-22 114 -41 49 -19 102 -34 120 -34 28 0 97 -25 138 -51 8 -5 38 -20 65 -33
28 -13 65 -38 83 -56 29 -28 37 -30 33 -7 -1 5 3 6 9 2 6 -4 4 -15 -6 -31 -16
-23 -32 -35 -18 -12 5 8 0 9 -17 4 -102 -30 -194 -13 -265 50 -53 48 -61 51
-89 30 -19 -14 -33 -62 -15 -51 6 4 29 -12 52 -34 22 -23 44 -41 49 -41 8 0 4
-39 -6 -49 -4 -3 -11 2 -16 12 -6 9 -17 17 -25 17 -21 0 14 -37 41 -42 17 -3
17 -5 4 -10 -10 -4 -28 4 -48 23 -18 16 -27 29 -20 29 15 0 -19 29 -62 53 -17
10 -28 21 -24 25 4 4 10 1 12 -5 3 -7 9 -13 14 -13 6 0 7 5 3 12 -4 7 -3 8 4
4 17 -11 15 9 -3 24 -8 7 -15 18 -14 24 0 7 2 6 6 -1 2 -7 9 -13 15 -13 6 0 3
12 -7 26 -9 14 -18 36 -19 48 -2 24 -23 58 -43 70 -9 5 -11 2 -6 -10 5 -13 3
-15 -7 -9 -8 5 -11 4 -6 -3 3 -6 2 -13 -4 -17 -13 -8 -13 -35 0 -35 6 0 10 6
8 13 -2 6 2 12 7 12 6 0 8 -4 6 -10 -2 -5 -4 -18 -5 -29 0 -10 -25 -42 -55
-71 -73 -71 -67 -73 -186 86 -90 120 -105 144 -105 167 0 10 -4 22 -10 28 -5
5 -25 55 -44 109 -75 220 -99 275 -121 275 -5 0 -30 -19 -55 -42 -25 -23 -48
-42 -51 -43 -8 0 -129 -77 -129 -82 0 -6 42 17 65 36 11 8 7 1 -9 -17 -17 -17
-35 -32 -42 -32 -7 0 -30 -22 -53 -48 -22 -27 -58 -61 -81 -77 -23 -16 -39
-34 -36 -41 3 -7 -4 -16 -15 -19 -20 -7 -27 -25 -9 -25 6 0 10 -5 10 -11 0 -5
-5 -7 -10 -4 -7 4 -9 -2 -4 -19 4 -16 2 -26 -5 -26 -6 0 -8 7 -5 15 4 8 1 15
-5 15 -6 0 -11 -5 -11 -11 0 -8 -5 -8 -15 1 -8 7 -15 26 -15 43 0 44 -20 146
-36 184 -8 17 -14 37 -14 43 0 16 -38 78 -65 107 -24 26 -97 53 -145 53 -29 0
-44 -8 -80 -45 -50 -51 -64 -56 -49 -19 12 34 4 42 -18 17 -10 -10 -15 -14
-12 -8 4 5 5 18 4 28 -2 11 5 19 20 23 25 6 40 30 25 39 -6 4 -10 0 -10 -8 0
-7 -6 -14 -13 -14 -23 0 -15 28 9 38 16 5 22 14 18 24 -3 8 -8 15 -11 15 -3 0
-2 -7 1 -16 3 -8 2 -12 -4 -9 -8 5 -8 34 0 55 2 3 2 8 1 13 0 4 3 7 9 7 13 0
13 -17 0 -25 -12 -7 -4 -25 12 -25 5 0 8 6 5 13 -3 8 -1 20 3 28 5 8 4 19 -2
26 -8 10 -6 13 5 13 20 0 31 31 15 42 -7 4 -8 8 -2 8 6 0 16 11 23 24 11 19
10 29 -4 56 -9 18 -12 29 -5 25 9 -5 10 -1 5 14 -4 12 -2 21 4 21 6 0 10 -3
10 -7 -3 -21 2 -33 15 -33 14 0 46 77 46 109 0 9 7 29 15 44 12 24 55 150 55
163 0 10 -20 3 -34 -12 -9 -8 -16 -11 -16 -5 0 5 7 14 16 19 9 5 15 15 12 22
-3 9 -12 3 -26 -17z m-27 -140 c-4 -10 -8 -26 -9 -36 0 -9 -4 -17 -8 -17 -5 0
-13 0 -19 0 -8 0 -9 4 0 13 6 8 7 18 3 22 -4 5 -1 4 7 0 11 -6 13 -4 8 9 -4
10 -3 15 3 11 6 -3 10 -1 10 4 0 6 3 11 6 11 3 0 3 -8 -1 -17z m-17 -84 c3
-11 2 -11 -6 -1 -7 11 -11 10 -16 -4 -3 -9 -9 -15 -11 -12 -3 3 -3 13 1 22 7
19 26 17 32 -5z m-12 -44 c-4 -36 -11 -39 -24 -11 -9 21 -9 24 3 19 8 -3 15 0
15 6 0 6 2 11 4 11 3 0 3 -11 2 -25z m-50 -131 c-15 -14 -16 -13 -12 8 3 13 5
28 6 33 0 6 5 2 11 -8 8 -13 6 -21 -5 -33z m-1241 -24 c3 -5 -1 -10 -10 -10
-9 0 -13 5 -10 10 3 6 8 10 10 10 2 0 7 -4 10 -10z m94 -50 l-24 -20 31 6 c17
3 34 2 37 -4 4 -5 -5 -8 -21 -5 -24 3 -25 2 -7 -7 18 -9 18 -9 -5 -7 -14 1
-28 6 -32 12 -8 10 19 45 35 45 5 0 -1 -9 -14 -20z m-359 -120 c0 -5 -4 -10
-10 -10 -5 0 -10 5 -10 10 0 6 5 10 10 10 6 0 10 -4 10 -10z m23 -6 c-3 -9 -2
-19 4 -23 6 -4 5 -14 -2 -28 -11 -21 -12 -18 -13 22 0 25 4 45 9 45 4 0 6 -7
2 -16z m-29 -44 c-6 -6 -10 -3 -10 10 0 13 4 16 10 10 7 -7 7 -13 0 -20z
m2936 0 c-12 -8 -11 -11 9 -17 23 -6 23 -7 5 -13 -22 -9 -54 5 -53 23 0 9 2 9
6 0 5 -14 24 -18 22 -5 -3 15 1 22 14 22 8 0 7 -4 -3 -10z m101 -3 c-7 -7 -14
-8 -21 -1 -6 6 -2 10 12 11 16 2 18 -1 9 -10z m-2979 -15 c-7 -2 -12 -8 -12
-13 0 -4 6 -6 14 -3 8 3 17 1 21 -5 3 -6 0 -9 -7 -6 -9 4 -13 -6 -13 -37 0
-37 3 -43 20 -40 20 3 20 2 0 -14 -20 -16 -20 -16 0 -12 11 2 24 13 30 25 11
21 11 21 23 2 7 -10 12 -25 12 -32 0 -7 10 -21 22 -31 19 -17 20 -20 5 -30 -9
-7 -12 -17 -8 -25 6 -10 10 -9 15 5 3 9 9 14 13 11 10 -11 -18 -36 -34 -30
-13 5 -14 3 -4 -16 7 -12 15 -19 19 -17 5 3 8 -4 9 -14 1 -11 -3 -23 -9 -26
-6 -4 -9 -1 -6 7 3 8 -3 24 -13 37 -14 18 -16 29 -9 47 7 19 5 27 -8 34 -9 6
-12 11 -5 11 6 0 15 -4 18 -10 3 -5 11 -10 17 -10 6 0 3 9 -7 20 -10 11 -27
20 -37 20 -15 0 -18 -5 -12 -22 4 -13 12 -26 18 -30 7 -5 7 -8 -2 -8 -8 0 -16
9 -19 20 -3 11 -10 20 -16 20 -5 0 -3 8 6 18 21 23 22 39 2 22 -16 -13 -50 -6
-40 9 3 5 1 13 -5 16 -6 4 -8 16 -4 27 4 15 3 18 -6 13 -9 -5 -10 -1 -5 16 7
24 7 24 -10 4 -9 -11 -15 -15 -12 -10 23 61 30 74 40 68 8 -5 8 -8 -1 -11z
m2931 11 c-7 -2 -19 -2 -25 0 -7 3 -2 5 12 5 14 0 19 -2 13 -5z m114 -10 c0
-8 -5 -9 -11 -4 -6 4 -18 11 -26 14 -8 3 -3 5 11 4 14 -1 26 -7 26 -14z m-12
-34 c-4 -5 -1 -9 4 -9 6 0 11 5 11 12 0 6 2 9 5 6 3 -3 3 -13 -1 -22 -5 -13
-9 -14 -20 -5 -8 6 -11 15 -8 20 3 5 -2 9 -10 9 -9 0 -16 -5 -16 -11 0 -5 -4
-7 -10 -4 -5 3 -20 8 -31 10 -12 3 -24 7 -28 11 -3 4 1 5 9 2 8 -3 20 1 27 8
10 10 19 10 43 -3 17 -8 28 -19 25 -24z m69 6 c-4 -8 -11 -12 -17 -8 -6 3 -7
1 -3 -5 4 -7 2 -12 -4 -12 -6 0 -8 -6 -4 -12 5 -10 4 -10 -5 -2 -15 13 -5 41
17 47 10 3 18 5 19 6 1 0 0 -6 -3 -14z m23 -26 c-9 -6 -15 -14 -12 -20 3 -5
-1 -6 -9 -3 -20 8 -21 24 -1 24 8 0 14 3 14 8 -3 19 2 25 14 13 10 -10 8 -14
-6 -22z m-363 -4 c-9 -14 -18 -25 -21 -25 -5 0 5 18 20 38 17 22 18 13 1 -13z
m-2712 -13 c-7 -2 -9 -8 -6 -14 4 -6 1 -9 -6 -6 -8 2 -16 10 -18 18 -3 7 0 10
7 6 6 -4 11 -2 11 4 0 6 5 8 12 4 9 -6 9 -9 0 -12z m2180 -4 c14 -14 18 -23
10 -26 -7 -2 -9 -9 -5 -15 3 -6 -5 -2 -19 9 -18 13 -23 23 -17 31 7 7 5 13 -3
16 -10 4 -10 6 0 6 6 1 22 -9 34 -21z m41 -1 c4 3 7 4 7 0 0 -18 -21 -14 -30
5 -10 21 -10 21 3 6 8 -10 17 -15 20 -11z m-93 -6 c0 -5 -7 -11 -14 -14 -10
-4 -13 -1 -9 9 6 15 23 19 23 5z m-844 -35 c-18 -28 -21 -50 -6 -41 6 3 10 1
10 -4 0 -6 -9 -11 -21 -11 -16 0 -20 -4 -14 -17 4 -13 3 -15 -5 -7 -8 8 -3 25
17 62 15 28 29 49 31 47 3 -2 -3 -16 -12 -29z m-517 13 c10 15 26 -3 16 -19
-3 -5 11 -20 32 -33 21 -14 47 -34 57 -46 15 -16 22 -18 28 -9 5 8 7 2 4 -15
-4 -24 -2 -28 12 -23 9 3 5 -3 -10 -15 -16 -11 -28 -26 -28 -32 0 -6 6 -2 14
9 14 18 15 18 21 -7 4 -15 5 -39 3 -55 -3 -32 -35 -45 -81 -33 -30 9 -60 2
-52 -11 3 -5 1 -11 -4 -14 -5 -4 -13 -1 -17 5 -5 8 -3 9 7 4 8 -5 11 -4 6 0
-13 15 -48 13 -43 -2 4 -10 -2 -12 -26 -8 -18 4 -35 9 -38 12 -3 3 5 3 17 0
13 -3 26 0 30 5 8 14 -25 38 -53 38 -34 0 -66 47 -58 84 8 42 49 101 79 114
14 7 24 17 23 23 -2 6 4 14 12 16 13 4 13 3 0 -6 -11 -7 -6 -10 19 -9 25 1 29
3 17 10 -9 5 -16 14 -16 21 0 7 4 6 10 -3 8 -12 11 -13 19 -1z m47 -4 c-6 -16
3 -19 29 -9 13 5 14 8 3 15 -18 12 29 4 70 -11 17 -6 32 -16 32 -21 0 -5 -15
0 -34 10 -36 21 -72 13 -48 -11 8 -8 12 -8 12 -1 0 6 9 9 20 6 25 -7 25 -16 3
-34 -16 -13 -17 -12 -5 3 12 15 10 16 -23 14 -19 -2 -38 1 -41 6 -3 5 -12 7
-20 4 -16 -6 -29 10 -14 19 6 4 8 11 5 16 -4 5 -1 9 5 9 7 0 10 -7 6 -15z
m1882 3 c-2 -7 -9 -19 -15 -26 -7 -7 -13 -19 -13 -25 0 -7 8 -3 16 8 16 20 16
19 9 -4 -5 -15 -3 -26 6 -32 10 -6 10 -9 2 -9 -6 0 -14 4 -18 10 -3 5 -13 7
-23 4 -10 -4 -13 -2 -7 3 6 4 10 18 9 31 -1 12 3 22 7 22 5 0 8 3 8 8 -3 14 1
22 11 22 6 0 9 -6 8 -12z m-530 -23 c20 -23 21 -28 8 -40 -15 -15 -11 -51 7
-62 7 -4 8 1 4 13 -7 18 -7 18 8 0 13 -17 15 -17 15 -3 0 9 -6 20 -14 24 -12
7 -12 10 0 21 13 11 16 8 13 -14 0 -4 5 -10 13 -15 10 -6 10 -11 0 -21 -6 -6
-13 -32 -14 -57 l-1 -46 -7 50 c-4 28 -8 44 -8 37 -1 -7 -7 -10 -14 -6 -8 5
-9 2 -5 -9 3 -9 2 -19 -3 -22 -5 -3 -7 8 -5 25 2 17 0 28 -4 26 -5 -3 -17 4
-27 15 -11 12 -18 22 -16 23 2 0 0 9 -4 19 -6 18 12 67 26 67 3 0 16 -11 28
-25z m-822 -7 c4 -6 3 -8 -4 -4 -6 3 -13 2 -17 -4 -3 -5 -11 -10 -16 -10 -11
0 12 29 23 30 4 0 10 -5 14 -12z m40 0 c4 -6 3 -8 -4 -4 -5 3 -13 0 -15 -6 -3
-8 -6 -6 -6 5 -1 19 14 23 25 5z m59 -17 c3 -11 12 -22 20 -25 19 -7 19 1 0
21 -9 8 -13 18 -10 22 10 9 36 -31 31 -46 -3 -7 -1 -15 3 -18 15 -9 22 27 9
44 -12 14 -11 14 5 2 9 -7 16 -19 15 -25 -2 -6 2 -12 7 -12 6 -1 9 3 7 10 -2
7 1 7 9 -1 16 -16 21 -43 8 -43 -6 0 -8 -4 -5 -9 3 -5 15 -7 26 -4 16 4 19 2
13 -12 -4 -13 -3 -16 5 -11 7 4 12 2 12 -4 0 -6 5 -8 10 -5 6 4 10 -6 9 -22 0
-27 -1 -27 -9 -5 -11 26 -32 30 -23 5 5 -14 1 -12 -14 4 -11 13 -23 19 -27 16
-4 -4 -4 0 -1 8 7 19 -20 45 -30 29 -3 -5 -1 -10 6 -10 7 0 10 -3 6 -6 -13
-14 -27 7 -17 27 7 13 7 19 0 19 -5 0 -10 -6 -11 -12 0 -10 -2 -10 -6 0 -2 6
-10 9 -15 6 -6 -4 -8 -2 -4 4 3 6 -2 13 -12 16 -20 7 -48 56 -32 56 5 0 11 -9
15 -19z m-518 -26 c-23 -22 -33 -18 -12 5 10 11 20 18 23 16 2 -3 -3 -12 -11
-21z m462 -5 c16 0 21 4 17 15 -3 8 -1 15 4 15 10 0 11 -2 15 -36 1 -11 16
-40 33 -63 17 -24 34 -60 38 -80 4 -20 10 -40 14 -46 11 -15 40 -153 40 -191
0 -18 4 -35 8 -38 32 -20 -13 -162 -60 -187 -26 -14 -120 -5 -161 16 -20 10
-35 11 -53 5 -17 -7 -23 -7 -19 0 3 6 13 10 21 10 19 0 18 16 -4 37 -10 10
-33 44 -50 75 -39 70 -42 129 -11 191 12 23 30 73 40 112 9 38 24 92 33 119 8
27 13 53 10 57 -8 14 31 16 47 2 8 -7 26 -13 38 -13z m661 -47 c16 -38 43 -94
60 -125 25 -47 30 -68 30 -125 0 -48 3 -63 10 -53 6 9 10 10 10 3 0 -6 -5 -15
-10 -18 -6 -4 -10 -12 -9 -18 3 -25 -1 -38 -10 -32 -5 3 -13 0 -17 -6 -4 -8
-3 -9 4 -5 15 9 16 -36 1 -104 l-11 -50 -58 0 c-50 0 -60 3 -65 20 -5 16 -10
18 -26 10 -14 -8 -25 -6 -46 7 -26 17 -26 17 -21 -5 4 -12 2 -20 -2 -17 -5 3
-10 -1 -13 -7 -3 -10 -7 -10 -20 1 -14 11 -17 11 -17 0 0 -8 -9 -4 -24 11 -13
14 -21 29 -18 34 3 5 -2 7 -11 3 -23 -9 -41 17 -23 32 11 9 16 9 22 0 4 -7 3
-9 -4 -5 -6 3 -14 1 -17 -5 -5 -7 2 -9 21 -7 15 2 30 9 32 17 3 8 0 11 -7 7
-7 -5 -9 -1 -4 10 4 10 2 15 -4 11 -5 -3 -10 1 -10 10 0 10 10 4 28 -18 25
-31 27 -36 13 -56 -17 -26 -18 -33 -4 -33 6 0 15 11 22 25 6 13 16 22 22 19 6
-3 4 1 -4 8 -39 35 -70 127 -70 208 0 49 5 64 45 124 50 76 152 196 166 196 6
0 23 -30 39 -67z m642 29 c14 -6 13 -9 -8 -25 -13 -10 -24 -13 -24 -7 0 5 5
10 10 10 6 0 10 5 10 11 0 6 -7 8 -16 5 -8 -3 -12 -2 -9 4 7 11 13 12 37 2z
m-1451 -26 c-6 -7 -8 -16 -3 -20 4 -4 -1 -12 -11 -17 -9 -6 -14 -15 -11 -21 5
-7 2 -8 -5 -4 -9 6 -8 13 5 27 9 10 14 19 9 19 -4 0 -2 6 4 13 6 8 7 18 3 22
-4 5 -1 5 6 1 9 -6 10 -11 3 -20z m1534 -31 c16 -12 16 -14 3 -9 -10 3 -18 1
-18 -5 0 -6 5 -11 11 -11 5 0 7 -4 4 -10 -4 -6 -11 -5 -20 3 -10 9 -10 16 -1
27 9 13 9 13 -5 3 -9 -7 -19 -10 -22 -6 -4 3 -7 4 -7 0 0 -3 7 -13 16 -21 13
-13 13 -16 1 -16 -21 0 -38 25 -31 46 5 18 5 18 -10 0 -13 -16 -16 -17 -16 -4
0 8 7 21 15 28 12 10 16 9 21 -4 3 -9 10 -16 15 -16 6 0 4 10 -2 23 -11 21
-11 21 7 4 11 -10 28 -24 39 -32z m-2670 15 c-3 -5 -12 -10 -18 -10 -7 0 -6 4
3 10 19 12 23 12 15 0z m2139 2 c-15 -10 -13 -40 3 -46 7 -3 13 -11 13 -18 0
-9 -3 -8 -10 2 -8 12 -10 11 -10 -6 0 -11 3 -24 6 -27 4 -4 8 -26 10 -49 2
-37 1 -39 -6 -15 -5 16 -17 35 -27 42 -10 7 -15 17 -10 21 4 4 7 2 7 -4 0 -7
4 -12 9 -12 6 0 6 13 1 33 -7 26 -8 72 -1 85 0 1 7 2 14 2 8 0 9 -3 1 -8z
m-2124 -22 c0 -5 -5 -10 -11 -10 -5 0 -7 5 -4 10 3 6 8 10 11 10 2 0 4 -4 4
-10z m4 -28 c3 7 3 2 -1 -12 -5 -23 -5 -24 12 -10 14 11 17 11 11 1 -5 -8 -3
-17 5 -23 11 -7 9 -8 -6 -6 -11 2 -26 10 -33 18 -11 13 -13 11 -8 -15 3 -16 3
-24 0 -17 -3 6 -10 10 -15 7 -5 -4 -6 2 -2 11 5 13 3 15 -8 10 -8 -4 -6 -1 5
8 11 9 15 20 10 28 -6 11 -5 11 8 0 13 -10 17 -10 22 0z m2062 -37 c-9 -34
-26 -32 -25 3 0 24 1 25 9 7 7 -17 9 -16 10 10 1 17 4 24 7 17 3 -7 2 -24 -1
-37z m619 35 c-8 -12 1 -13 24 -1 13 8 17 5 18 -11 1 -12 8 -25 15 -29 23 -15
29 -9 13 14 -14 21 -13 23 8 24 17 2 18 0 7 -7 -8 -5 -11 -12 -7 -16 3 -4 14
-1 23 7 14 11 18 11 29 -5 8 -10 18 -15 24 -12 5 4 12 2 16 -3 3 -5 14 -8 24
-6 23 4 58 -30 41 -40 -8 -5 -8 -11 1 -21 16 -20 4 -18 -16 3 -14 14 -18 14
-26 2 -6 -9 -7 -4 -3 16 5 26 3 31 -15 31 -25 0 -28 -16 -3 -17 13 0 12 -2 -6
-9 -23 -10 -72 5 -72 22 0 12 10 10 26 -7 9 -8 21 -15 27 -15 7 0 3 7 -7 15
-11 8 -16 15 -10 16 5 0 0 4 -11 8 -14 6 -24 3 -33 -11 -12 -16 -15 -17 -28
-3 -19 18 -38 20 -29 3 3 -7 -2 -3 -11 10 -16 21 -41 32 -29 12 3 -5 2 -10 -4
-10 -5 0 -13 5 -16 10 -3 6 -1 10 4 10 6 0 11 7 11 15 0 8 5 15 11 15 5 0 7
-4 4 -10z m-1212 -23 c4 3 7 1 7 -5 0 -17 -16 -15 -31 6 -12 15 -12 16 2 5 9
-7 19 -10 22 -6z m-400 -12 c4 -8 3 -16 -1 -19 -4 -3 -9 4 -9 15 -2 23 3 25
10 4z m447 -5 c0 -5 -4 -10 -10 -10 -5 0 -10 5 -10 10 0 6 5 10 10 10 6 0 10
-4 10 -10z m17 -22 c-3 -8 -6 -5 -6 6 -1 11 2 17 5 13 3 -3 4 -12 1 -19z
m-1116 -1 c-7 -7 -14 -8 -21 -1 -6 6 -2 10 12 11 16 2 18 -1 9 -10z m1066 -9
c2 -17 0 -19 -7 -8 -5 8 -6 18 -4 22 8 12 10 10 11 -14z m-1461 -25 c-6 -15
30 -57 43 -49 4 3 8 0 8 -7 2 -33 10 -74 16 -84 8 -12 -20 -26 -34 -17 -6 3
-7 14 -4 25 4 12 1 21 -9 25 -9 3 -14 10 -11 15 3 4 13 5 23 2 14 -6 15 -4 5
9 -7 8 -10 18 -6 21 3 4 1 7 -5 7 -6 0 -14 -4 -17 -10 -3 -5 -10 -10 -16 -10
-5 0 -9 5 -9 10 0 6 3 9 8 9 21 -4 23 3 7 21 -10 11 -23 17 -29 13 -6 -3 -8
-3 -4 2 4 4 3 14 -3 22 -14 16 3 17 19 1 16 -16 16 4 0 22 -11 12 -10 12 5 0
10 -7 16 -19 13 -27z m24 -9 c-11 -18 -11 -18 -6 0 4 10 1 26 -6 35 -11 14
-10 14 6 0 15 -14 16 -20 6 -35z m437 13 c6 2 14 -1 18 -6 3 -7 0 -8 -9 -5 -9
3 -16 1 -16 -5 0 -6 5 -11 11 -11 5 0 7 -5 3 -11 -3 -6 -14 2 -25 21 -11 17
-24 28 -30 25 -6 -4 -3 -12 8 -21 20 -15 7 -19 -16 -5 -11 7 -11 13 -1 32 13
23 13 23 29 3 9 -11 22 -19 28 -17z m1585 16 c-6 -3 -10 -8 -8 -12 3 -4 -1 -8
-9 -8 -13 0 -12 4 2 19 9 10 19 15 22 12 3 -4 0 -9 -7 -11z m917 -16 c0 -9 -2
-9 -6 1 -7 17 -23 15 -23 -3 0 -8 5 -15 11 -15 8 0 9 -4 0 -13 -6 -8 -8 -17
-4 -21 4 -4 -1 -4 -12 0 -11 5 -14 9 -7 12 7 2 12 8 12 13 0 6 -4 8 -9 5 -14
-9 -20 16 -9 37 7 14 13 15 28 7 11 -6 20 -16 19 -23z m-2589 3 c0 -5 -8 -10
-17 -10 -15 0 -16 2 -3 10 19 12 20 12 20 0z m655 -27 c-9 -8 -13 -18 -11 -22
3 -4 -1 -8 -8 -8 -7 0 -13 6 -13 13 0 7 4 11 8 9 10 -7 20 25 12 38 -4 7 1 6
10 -1 15 -12 15 -16 2 -29z m475 27 c0 -5 -7 -10 -15 -10 -9 0 -12 -6 -9 -17
5 -15 4 -15 -4 -3 -8 10 -8 18 0 27 12 15 28 17 28 3z m579 -54 c1 -44 -10
-24 -14 25 -2 31 -1 38 5 24 5 -11 9 -33 9 -49z m905 39 c-4 -8 -11 -15 -16
-15 -6 0 -5 6 2 15 7 8 14 15 16 15 2 0 1 -7 -2 -15z m-2584 -28 c11 -5 9 -6
-4 -4 -11 1 -21 9 -23 17 -3 10 -2 11 4 4 4 -6 15 -14 23 -17z m1126 -9 c-9
-12 -16 -19 -16 -15 0 11 24 47 28 42 2 -2 -3 -14 -12 -27z m521 -9 c-1 -19
-12 -15 -12 4 -1 7 -6 11 -11 10 -6 -1 -11 4 -11 12 0 10 4 11 18 2 10 -6 17
-19 16 -28z m-1537 21 c-20 -13 -33 -13 -25 0 3 6 14 10 23 10 15 0 15 -2 2
-10z m-130 -40 c0 -4 -12 -12 -27 -19 l-28 -12 24 19 c14 12 20 22 13 26 -6 3
-12 0 -15 -6 -2 -8 -8 -9 -13 -4 -5 5 -4 11 4 13 6 3 9 10 5 16 -3 7 3 3 15
-7 12 -11 22 -22 22 -26z m2594 31 c4 -5 18 -8 33 -6 16 1 38 -5 52 -16 13
-11 20 -19 15 -19 -5 0 -1 -5 8 -11 10 -5 15 -16 11 -25 -3 -8 2 -21 12 -28
13 -9 15 -15 7 -20 -7 -4 -12 -12 -12 -17 0 -6 5 -7 12 -3 7 5 8 3 3 -5 -5 -9
-16 -3 -36 21 -15 18 -28 38 -28 43 0 6 6 2 13 -7 7 -10 17 -18 21 -18 5 0 1
8 -8 18 -10 10 -14 21 -11 24 3 3 1 9 -5 13 -6 3 -11 1 -11 -5 0 -6 -5 -8 -11
-5 -6 5 -4 12 8 21 20 15 6 19 -16 5 -9 -6 -11 -16 -7 -27 4 -11 7 -21 7 -24
0 -3 8 -14 17 -25 17 -20 17 -20 -5 -1 -13 11 -23 25 -23 33 0 7 -4 13 -10 13
-5 0 -6 7 -3 17 4 11 3 14 -5 9 -7 -4 -12 -3 -12 2 0 4 -9 18 -20 30 -12 12
-16 22 -11 22 5 0 12 -4 15 -9z m-1474 -26 c0 -9 6 -12 15 -9 10 4 15 0 15
-11 0 -9 -4 -14 -9 -10 -11 6 -20 -6 -26 -35 -2 -11 -9 -28 -14 -37 -10 -16
-11 -15 -8 7 2 14 8 35 15 47 14 26 15 36 3 29 -5 -4 -7 4 -3 16 4 16 2 19 -8
13 -9 -5 -11 -4 -6 4 9 14 26 5 26 -14z m105 15 c3 -5 1 -10 -4 -10 -6 0 -11
5 -11 10 0 6 2 10 4 10 3 0 8 -4 11 -10z m500 -22 c0 -17 -6 -32 -13 -34 -7
-1 -8 0 -3 2 6 3 8 19 4 35 -3 16 -2 29 3 29 5 0 9 -14 9 -32z m-484 -9 c-5
-13 -10 -19 -10 -12 -1 15 10 45 15 40 3 -2 0 -15 -5 -28z m-616 11 c-11 -5
-14 -9 -7 -9 8 -1 12 -7 9 -13 -2 -7 -10 -12 -17 -10 -8 2 -11 -7 -8 -27 2
-17 1 -28 -4 -25 -10 6 -11 48 0 58 4 4 8 12 8 17 3 18 4 19 22 18 14 0 14 -2
-3 -9z m1022 -32 c-3 -8 -6 -5 -6 6 -1 11 2 17 5 13 3 -3 4 -12 1 -19z m-1649
-26 c2 -7 -1 -12 -8 -12 -6 0 -9 4 -6 9 4 5 1 12 -4 14 -6 3 -5 4 2 3 6 -1 14
-8 16 -14z m1204 -4 c-7 -7 -12 -8 -12 -2 0 6 3 14 7 17 3 4 9 5 12 2 2 -3 -1
-11 -7 -17z m-572 2 c0 -5 -2 -10 -4 -10 -3 0 -8 5 -11 10 -3 6 -1 10 4 10 6
0 11 -4 11 -10z m1094 -33 c4 -19 3 -26 -4 -22 -5 3 -10 18 -10 32 0 32 5 28
14 -10z m511 23 c3 -5 1 -10 -5 -10 -6 0 -8 -4 -5 -10 3 -5 2 -10 -4 -10 -5 0
-9 9 -8 20 1 21 12 26 22 10z m-471 -11 c-2 -4 4 -13 13 -19 17 -11 17 -11 1
-6 -12 3 -18 0 -18 -9 0 -9 6 -12 18 -9 14 5 14 4 2 -4 -19 -14 -30 -6 -30 24
0 17 -4 23 -12 18 -6 -4 -8 -3 -5 3 3 5 13 10 21 10 8 0 13 -4 10 -8z m-1761
-12 c3 -8 0 -14 -7 -14 -7 0 -13 6 -13 14 0 7 4 13 8 13 4 0 9 -6 12 -13z
m1237 -17 c9 -16 8 -19 -6 -13 -13 5 -15 3 -9 -7 5 -8 4 -11 -3 -7 -5 4 -8 16
-5 27 7 25 10 25 23 0z m-1567 1 c21 10 21 9 3 -5 -20 -16 -37 -13 -35 7 0 9
2 9 6 0 3 -10 10 -10 26 -2z m918 -28 c-12 -20 -14 -14 -5 12 4 9 9 14 11 11
3 -2 0 -13 -6 -23z m39 17 c0 -5 -2 -10 -4 -10 -3 0 -8 5 -11 10 -3 6 -1 10 4
10 6 0 11 -4 11 -10z m1600 -4 c0 15 2 16 9 5 7 -10 4 -19 -7 -28 -9 -7 -12
-13 -6 -13 7 0 15 -8 18 -17 6 -15 4 -15 -14 2 -11 10 -18 20 -15 23 2 3 0 14
-6 26 -10 20 -10 20 5 2 16 -20 16 -20 16 0z m-2902 -21 c-3 -3 -9 2 -12 12
-6 14 -5 15 5 6 7 -7 10 -15 7 -18z m676 13 c-3 -4 -9 -8 -15 -8 -5 0 -9 4 -9
8 0 5 7 9 15 9 8 0 12 -4 9 -9z m-695 -26 c-1 -15 -2 -15 -6 1 -2 9 -9 14 -15
11 -7 -4 -8 -2 -4 5 10 15 26 4 25 -17z m381 -17 c0 -25 -3 -45 -8 -45 -4 0
-6 20 -4 45 2 25 6 45 8 45 2 0 4 -20 4 -45z m1517 15 c-8 -30 21 -32 32 -2
l9 27 1 -27 c1 -19 -5 -29 -20 -33 -11 -4 -23 -4 -26 -2 -9 10 -9 66 0 60 5
-3 7 -13 4 -23z m538 12 c-3 -3 -11 0 -18 7 -9 10 -8 11 6 5 10 -3 15 -9 12
-12z m977 0 c-7 -2 -9 -9 -5 -15 4 -7 -1 -6 -10 2 -20 16 -13 33 10 24 11 -4
13 -8 5 -11z m-2093 1 c-1 -5 0 -10 1 -13 1 -3 3 -29 4 -57 3 -55 -9 -68 -34
-38 -9 10 -9 15 -1 15 6 0 11 -5 11 -11 0 -5 5 -7 10 -4 15 9 12 25 -4 25 -8
0 -17 4 -20 9 -4 5 3 7 13 4 16 -4 19 0 17 21 -1 14 -6 29 -9 33 -10 10 -8 23
3 23 6 0 9 -3 9 -7z m-625 -12 c3 -5 -1 -14 -8 -20 -16 -13 -32 2 -21 19 8 12
22 13 29 1z m1771 -1 c-3 -5 -14 -10 -23 -9 -14 0 -13 2 3 9 27 11 27 11 20 0z
m61 -12 c10 -13 12 -18 5 -11 -9 8 -21 9 -38 2 -16 -6 -22 -5 -18 1 3 6 14 10
23 10 15 0 15 2 2 10 -8 5 -10 10 -4 10 6 0 19 -10 30 -22z m-1236 -9 c0 -5
-4 -9 -10 -9 -5 0 -10 7 -10 16 0 8 5 12 10 9 6 -3 10 -10 10 -16z m1179 -23
c15 -16 29 -22 46 -18 14 2 22 8 19 13 -15 25 28 -5 74 -51 14 -14 22 -19 18
-12 -4 6 -3 12 2 12 6 0 12 -6 15 -12 2 -7 6 -17 8 -22 2 -5 -7 -13 -21 -18
-13 -5 -21 -6 -17 -2 3 4 1 16 -5 28 -7 11 -11 25 -10 29 1 4 -12 1 -30 -8
l-33 -16 24 21 c17 14 19 20 8 20 -8 0 -17 4 -19 8 -1 5 -14 5 -28 1 -25 -7
-25 -7 4 -8 24 -1 27 -3 16 -16 -7 -8 -17 -15 -23 -15 -6 0 -7 3 -4 7 9 8 -34
39 -48 35 -5 -2 -7 0 -3 3 4 4 -3 16 -15 26 -12 10 -17 18 -11 19 6 0 20 -11
33 -24z m-2401 -55 c15 -12 14 -12 -8 -6 -22 7 -23 6 -11 -9 7 -9 11 -16 7
-16 -3 0 -9 0 -13 0 -5 0 -9 5 -9 10 -1 6 -2 15 -3 21 0 5 -6 7 -13 3 -7 -4
-8 -3 -4 5 4 6 13 8 19 5 8 -5 8 -3 0 7 -7 7 -13 22 -13 34 0 16 3 14 15 -10
9 -16 24 -36 33 -44z m618 24 c1 -14 -1 -23 -7 -20 -5 3 -8 17 -7 30 3 30 10
24 14 -10z m-601 -13 c-3 -3 -11 0 -18 7 -9 10 -8 11 6 5 10 -3 15 -9 12 -12z
m1295 -2 c8 -5 11 -10 7 -10 -4 0 -3 -9 3 -20 8 -16 8 -20 -2 -18 -8 2 -12 -5
-10 -16 3 -15 1 -16 -11 -5 -10 10 -11 16 -4 21 8 5 5 9 -6 14 -17 6 -17 7 0
21 17 14 17 14 0 9 -11 -3 -16 -2 -12 4 8 12 16 12 35 0z m-1291 -54 c-14 -38
-27 -48 -25 -18 1 19 28 63 34 57 2 -2 -2 -20 -9 -39z m291 40 c0 -3 -4 -8
-10 -11 -5 -3 -10 -1 -10 4 0 6 5 11 10 11 6 0 10 -2 10 -4z m1705 -38 c-9 -5
-21 -7 -28 -4 -7 2 -4 5 7 5 13 1 16 6 12 17 -6 14 -4 15 9 4 15 -12 15 -14 0
-22z m515 12 c0 -4 -7 -11 -16 -14 -8 -3 -12 -2 -9 4 3 6 0 10 -7 10 -10 0 -9
3 2 9 15 10 30 6 30 -9z m596 -9 c-18 -7 -18 -8 -2 -14 10 -4 19 -1 22 7 3 7
11 13 19 13 10 0 7 -7 -8 -23 -12 -13 -23 -19 -25 -14 -2 6 -10 6 -21 0 -11
-5 -30 -6 -47 0 -21 6 -24 9 -9 9 11 1 29 8 39 16 11 8 27 15 35 14 12 0 11
-2 -3 -8z m-2356 -21 c0 -5 -10 -10 -22 -9 -22 0 -22 1 -3 9 11 5 21 9 23 9 1
1 2 -3 2 -9z m570 0 c0 -5 -2 -10 -4 -10 -3 0 -8 5 -11 10 -3 6 -1 10 4 10 6
0 11 -4 11 -10z m-485 -20 c-3 -5 -12 -10 -18 -10 -7 0 -6 4 3 10 19 12 23 12
15 0z m-805 -16 c0 -2 -7 -4 -15 -4 -8 0 -15 4 -15 10 0 5 7 7 15 4 8 -4 15
-8 15 -10z m710 6 c0 -5 -7 -7 -15 -4 -8 4 -15 8 -15 10 0 2 7 4 15 4 8 0 15
-4 15 -10z m56 -12 c19 -23 19 -23 -1 -7 -11 9 -27 19 -35 22 -13 5 -13 6 1 6
9 1 24 -9 35 -21z m137 -8 c3 -11 1 -18 -4 -14 -5 3 -9 12 -9 20 0 20 7 17 13
-6z m43 8 c3 -4 -1 -5 -10 -4 -8 1 -18 5 -22 8 -3 4 1 5 10 4 8 -1 18 -5 22
-8z m-86 -14 c0 -2 -7 -4 -15 -4 -8 0 -15 4 -15 10 0 5 7 7 15 4 8 -4 15 -8
15 -10z m-700 -39 c0 -2 -10 -9 -22 -15 -22 -11 -22 -10 -4 4 21 17 26 19 26
11z"/>
<path d="M466 2917 c3 -10 9 -15 12 -12 3 3 0 11 -7 18 -10 9 -11 8 -5 -6z"/>
<path d="M3378 3023 c7 -3 16 -2 19 1 4 3 -2 6 -13 5 -11 0 -14 -3 -6 -6z"/>
<path d="M2615 2960 c-3 -5 -1 -10 4 -10 6 0 11 5 11 10 0 6 -2 10 -4 10 -3 0
-8 -4 -11 -10z"/>
<path d="M2581 2911 c-8 -14 -9 -27 -2 -40 6 -10 9 -20 7 -22 -2 -2 3 -10 11
-18 13 -12 14 -11 8 8 -4 12 -2 28 5 36 9 11 8 19 -3 36 l-15 21 -11 -21z"/>
<path d="M1985 2839 c-4 -6 -5 -12 -2 -15 2 -3 7 2 10 11 7 17 1 20 -8 4z"/>
<path d="M2010 2791 c0 -6 4 -13 10 -16 6 -3 7 1 4 9 -7 18 -14 21 -14 7z"/>
<path d="M1820 2316 c0 -4 -7 -5 -16 -2 -19 7 -47 -12 -38 -26 3 -5 11 -5 19
2 7 6 17 10 21 8 5 -1 23 5 39 14 l30 16 -27 -1 c-16 -1 -28 -6 -28 -11z"/>
<path d="M2271 2351 c-7 -5 -11 -15 -9 -22 3 -10 8 -7 17 9 13 24 12 26 -8 13z"/>
<path d="M2315 2320 c3 -5 1 -10 -5 -10 -6 0 -8 -5 -5 -10 4 -6 11 -8 16 -5
12 8 11 35 -2 35 -5 0 -7 -4 -4 -10z"/>
<path d="M3275 2730 c-3 -5 -1 -10 4 -10 6 0 11 5 11 10 0 6 -2 10 -4 10 -3 0
-8 -4 -11 -10z"/>
<path d="M3460 2686 c0 -9 5 -16 10 -16 6 0 10 4 10 9 0 6 -4 13 -10 16 -5 3
-10 -1 -10 -9z"/>
<path d="M635 2540 c3 -5 8 -10 11 -10 2 0 4 5 4 10 0 6 -5 10 -11 10 -5 0 -7
-4 -4 -10z"/>
<path d="M635 2510 c3 -5 8 -10 11 -10 2 0 4 5 4 10 0 6 -5 10 -11 10 -5 0 -7
-4 -4 -10z"/>
<path d="M3603 2581 c8 -9 12 -10 15 -2 2 6 8 9 13 5 5 -3 9 -1 9 4 0 6 -11 9
-24 8 -19 -1 -22 -4 -13 -15z"/>
<path d="M2915 2290 c-3 -5 1 -10 10 -10 9 0 13 5 10 10 -3 6 -8 10 -10 10 -2
0 -7 -4 -10 -10z"/>
<path d="M3445 2260 c-3 -5 -2 -10 4 -10 5 0 13 5 16 10 3 6 2 10 -4 10 -5 0
-13 -4 -16 -10z"/>
<path d="M5497 3542 c-53 -53 -97 -105 -97 -115 0 -9 -3 -17 -7 -17 -5 0 -16
-7 -27 -15 -17 -13 -17 -15 5 -57 48 -89 43 -89 136 4 46 45 83 87 83 92 0 5
18 31 40 57 22 26 36 50 31 53 -5 3 -12 18 -16 33 -6 27 -32 63 -44 63 -4 0
-50 -44 -104 -98z m-46 -121 c4 -1 10 -9 13 -18 6 -15 4 -15 -14 2 -19 18 -20
18 -20 -1 0 -16 -2 -17 -10 -4 -14 22 -12 29 8 25 9 -2 20 -4 23 -4z m69 -15
c-17 -17 -22 -18 -32 -7 -10 11 -10 12 0 7 6 -4 18 -4 24 0 9 6 5 10 -12 15
-22 7 -21 7 8 6 32 -1 32 -1 12 -21z m-113 -12 c-3 -3 -12 -4 -19 -1 -8 3 -5
6 6 6 11 1 17 -2 13 -5z"/>
<path d="M1870 3371 c0 -5 5 -13 10 -16 6 -3 10 -2 10 4 0 5 -4 13 -10 16 -5
3 -10 2 -10 -4z"/>
<path d="M4607 3230 c-91 -89 -109 -112 -97 -120 8 -5 18 -10 22 -10 5 0 47
38 94 85 63 61 85 89 80 101 -4 10 1 25 10 35 10 11 14 19 10 19 -4 0 -58 -49
-119 -110z"/>
<path d="M425 3306 c-18 -13 -18 -14 4 -21 22 -7 40 6 41 28 0 12 -25 8 -45
-7z m25 -6 c0 -5 -5 -10 -11 -10 -5 0 -7 5 -4 10 3 6 8 10 11 10 2 0 4 -4 4
-10z"/>
<path d="M475 3303 c-8 -23 -6 -25 16 -18 13 5 19 3 15 -3 -3 -5 2 -9 12 -8 9
0 16 -5 14 -12 -1 -8 2 -11 8 -7 5 3 10 1 10 -6 0 -10 3 -10 12 -1 10 10 10
15 -2 22 -8 6 -10 10 -3 10 6 0 9 8 6 18 -5 22 -79 26 -88 5z m74 -9 c2 -2 2
-7 -2 -10 -3 -3 -16 2 -29 11 l-23 17 25 -7 c14 -4 27 -9 29 -11z"/>
<path d="M5770 3273 c-21 -22 -29 -38 -22 -41 7 -2 12 -8 12 -14 0 -7 -5 -6
-14 1 -12 10 -24 3 -62 -32 l-47 -44 21 -109 c19 -93 34 -216 56 -436 5 -44 3
-47 -34 -73 l-39 -27 -36 21 c-20 11 -43 21 -50 21 -24 0 -72 52 -89 98 -11
29 -16 75 -16 145 0 56 -7 132 -14 168 -14 64 -89 236 -111 252 -5 4 -54 6
-107 5 -93 -3 -98 -4 -130 -34 -18 -18 -43 -35 -56 -39 -13 -4 -21 -9 -18 -12
11 -11 -88 -108 -106 -105 -13 2 -16 -1 -11 -14 4 -12 3 -15 -5 -10 -7 4 -12
3 -12 -3 0 -5 5 -13 10 -16 6 -3 10 -12 9 -18 0 -9 -2 -9 -6 1 -5 13 -33 17
-33 4 0 -4 6 -14 13 -21 10 -10 9 -11 -5 -6 -11 4 -18 2 -18 -4 0 -6 7 -11 15
-11 8 0 15 -5 15 -10 0 -7 -6 -7 -19 -1 -21 12 -29 6 -54 -45 -32 -63 -48
-121 -54 -195 -7 -98 -2 -119 48 -171 22 -24 54 -67 71 -96 19 -33 39 -54 54
-58 49 -12 256 48 302 87 18 16 35 29 37 29 3 0 16 -18 30 -40 26 -41 81 -75
142 -86 53 -10 108 21 198 109 l80 79 3 -41 c2 -23 7 -41 11 -41 5 0 12 -21
16 -46 l7 -47 90 89 90 89 -9 95 c-12 141 -8 337 9 390 l14 45 114 3 c129 3
147 6 132 25 -6 6 -12 23 -14 36 -1 14 -10 27 -18 29 -13 5 -13 3 -1 -12 17
-20 7 -33 -13 -17 -19 16 -9 41 16 41 11 0 16 4 12 11 -5 8 -1 8 12 0 35 -20
75 -58 77 -72 2 -8 7 -20 11 -28 6 -9 5 -12 -2 -7 -6 3 -13 2 -17 -4 -3 -5
-16 -10 -28 -9 l-22 0 21 9 c12 4 24 16 27 24 5 13 1 15 -19 12 -15 -3 -29 -8
-33 -12 -3 -4 2 -4 11 -1 10 3 20 1 24 -5 4 -6 3 -8 -3 -5 -15 9 -47 -18 -39
-32 4 -7 16 -11 25 -9 10 2 17 -1 17 -7 -1 -5 -4 -9 -8 -7 -5 1 -8 -5 -8 -14
0 -9 5 -12 12 -8 7 4 8 3 4 -4 -4 -7 -4 -18 0 -24 5 -7 9 -48 10 -90 2 -118 3
-128 15 -126 6 2 14 -3 16 -10 3 -6 -1 -10 -9 -9 -7 2 -10 2 -6 0 4 -3 5 -18
1 -34 -4 -23 -2 -29 13 -29 17 0 17 -1 -2 -15 -19 -14 -18 -14 3 -15 17 0 24
-8 29 -35 3 -20 4 -39 0 -42 -3 -4 -6 3 -6 15 0 27 -10 52 -21 52 -4 0 -8 -42
-7 -94 1 -52 5 -93 10 -90 4 3 8 0 8 -5 0 -6 -4 -11 -10 -11 -5 0 -10 -6 -10
-12 1 -7 9 -3 20 10 l19 23 7 -25 c3 -14 4 -60 2 -101 -2 -41 -2 -75 1 -75 2
0 44 41 94 91 l90 91 -7 147 c-14 312 -20 359 -73 539 -36 124 -34 122 -179
122 -132 0 -147 -6 -139 -52 3 -15 1 -29 -5 -33 -6 -3 -7 1 -4 10 5 11 2 14
-12 9 -16 -6 -17 -5 -6 7 17 19 15 28 -8 26 -15 -1 -19 -7 -15 -24 2 -13 0
-21 -6 -18 -5 4 -7 11 -4 16 4 5 2 9 -3 9 -5 0 -22 -16 -36 -35 -15 -19 -41
-42 -57 -51 -19 -9 -29 -21 -25 -30 3 -8 0 -13 -7 -11 -7 1 -13 -5 -13 -13 -1
-8 -2 -20 -3 -27 0 -7 -7 -10 -14 -7 -8 3 -20 47 -30 112 -19 122 -34 182 -46
182 -4 0 -23 -17 -41 -37z m-18 -87 c7 4 8 2 4 -5 -4 -6 -11 -9 -16 -6 -5 3
-11 -14 -13 -37 -4 -41 -4 -41 -4 7 0 52 9 83 15 52 2 -9 8 -14 14 -11z m399
15 c3 -1 6 -7 6 -15 0 -8 -4 -14 -8 -13 -4 1 -15 -7 -24 -18 -16 -20 -16 -20
-5 3 6 12 7 22 2 22 -5 0 -9 6 -9 14 0 7 7 12 16 11 9 -2 19 -4 22 -4z m-1014
-58 c0 -15 -7 -16 -32 -7 -11 5 -13 9 -5 14 18 11 37 8 37 -7z m37 -4 c22 3
28 -2 11 -10 -17 -8 -15 -9 9 -5 17 2 35 -2 43 -10 8 -8 11 -14 6 -14 -5 0
-14 5 -21 12 -13 13 -15 8 -6 -16 3 -9 12 -16 19 -16 8 0 16 -4 19 -8 3 -5 -7
-7 -22 -4 -23 3 -28 0 -28 -17 0 -12 6 -21 14 -21 10 0 12 -9 8 -32 -3 -18 -3
-27 0 -20 11 24 19 11 19 -31 0 -38 -7 -48 -22 -33 -4 3 -1 6 6 6 7 0 4 14 -9
39 -14 28 -16 42 -9 47 8 5 7 10 -4 16 -10 5 -14 15 -10 25 5 12 3 14 -8 8 -8
-5 -5 2 6 14 16 19 17 24 5 32 -8 5 -22 8 -30 8 -8 -1 -24 -1 -35 0 -18 1 -19
2 -2 12 9 5 17 18 17 27 0 13 2 14 9 4 4 -8 11 -13 15 -13z m-94 8 c0 -2 -9
-12 -19 -21 -14 -13 -21 -14 -27 -5 -4 7 -3 10 3 6 6 -4 16 0 23 8 12 14 20
19 20 12z m180 -17 c0 -5 -5 -10 -11 -10 -5 0 -7 5 -4 10 3 6 8 10 11 10 2 0
4 -4 4 -10z m-154 -7 c-10 -11 -37 -12 -30 -2 3 5 12 9 21 9 9 0 13 -3 9 -7z
m668 -73 c-6 -6 -10 -3 -10 10 0 13 4 16 10 10 7 -7 7 -13 0 -20z m-524 -10
c8 -5 11 -10 5 -10 -5 0 -17 5 -25 10 -8 5 -10 10 -5 10 6 0 17 -5 25 -10z
m500 -11 c0 -13 4 -18 12 -13 7 4 8 3 4 -5 -4 -6 -2 -20 5 -29 11 -13 8 -12
-9 2 -12 11 -22 25 -22 33 0 7 -4 13 -10 13 -5 0 -10 5 -10 10 0 6 7 10 15 10
8 0 15 -9 15 -21z m-654 -1 c41 -15 49 -35 68 -173 8 -60 24 -136 35 -168 11
-32 17 -65 14 -73 -3 -9 0 -20 8 -25 11 -7 11 -9 -3 -9 -10 0 -18 -4 -18 -10
0 -5 6 -7 14 -4 8 3 17 1 20 -4 3 -5 -14 -15 -39 -22 -25 -7 -42 -16 -40 -21
3 -4 0 -11 -6 -15 -8 -4 -9 -3 -5 4 5 8 -1 12 -17 12 -27 0 -43 16 -76 75 -13
22 -40 55 -61 73 -21 18 -44 49 -51 69 -25 77 16 285 59 296 32 9 66 7 98 -5z
m177 -30 c9 -31 2 -33 -11 -3 -6 14 -8 25 -3 25 5 0 11 -10 14 -22z m999 -63
c-3 -65 0 -85 10 -85 10 0 9 -3 -2 -10 -8 -5 -17 -10 -20 -10 -6 0 -1 158 5
178 9 25 10 10 7 -73z m-503 10 c-3 -2 -16 10 -29 28 l-23 32 29 -27 c15 -15
26 -30 23 -33z m102 18 c-12 -20 -14 -14 -5 12 4 9 9 14 11 11 3 -2 0 -13 -6
-23z m-75 0 c-4 -9 -1 -20 6 -25 10 -7 9 -9 -2 -5 -16 4 -42 -17 -38 -30 2 -4
-1 -9 -7 -10 -5 -2 -9 7 -9 20 0 12 6 21 12 19 7 -1 18 9 24 23 12 28 24 35
14 8z m-528 -37 c1 -18 -6 -42 -14 -52 -14 -18 -15 -18 -7 6 4 14 6 37 5 53 0
15 2 27 7 27 4 0 8 -15 9 -34z m26 -31 c-4 -8 -2 -15 3 -15 4 0 9 -14 9 -30 1
-25 -1 -29 -13 -19 -10 9 -11 14 -3 19 8 5 7 12 -4 22 -11 11 -12 18 -3 27 15
15 18 14 11 -4z m-437 -14 c-1 -12 -6 -17 -16 -13 -10 4 -11 7 -3 10 7 2 10 8
6 13 -3 5 -1 9 5 9 5 0 9 -9 8 -19z m974 -8 c-12 -20 -14 -14 -5 12 4 9 9 14
11 11 3 -2 0 -13 -6 -23z m-994 -35 c-3 -8 -6 -5 -6 6 -1 11 2 17 5 13 3 -3 4
-12 1 -19z m435 -90 c2 -47 0 -84 -4 -81 -5 2 -8 -2 -8 -9 0 -10 -3 -9 -10 2
-5 8 -12 12 -15 8 -3 -3 0 -12 8 -20 13 -12 13 -17 0 -34 -15 -18 -15 -18 -8
4 3 12 2 22 -3 22 -17 0 -9 33 10 38 16 4 18 16 19 96 2 108 7 96 11 -26z
m537 98 c-2 -2 -15 -7 -29 -10 l-25 -7 25 15 c21 12 42 14 29 2z m-562 -118
c-2 -24 -4 -5 -4 42 0 47 2 66 4 43 2 -24 2 -62 0 -85z m591 97 c-3 -3 -9 2
-12 12 -6 14 -5 15 5 6 7 -7 10 -15 7 -18z m-17 -28 c0 -21 1 -21 9 -2 6 13 7
-2 3 -40 -7 -72 -13 -84 -13 -27 0 22 -3 43 -8 46 -4 2 -6 -14 -4 -36 3 -22 0
-44 -4 -48 -5 -5 -8 10 -6 35 3 33 0 45 -9 45 -10 1 -9 5 4 14 11 9 15 20 10
31 -4 13 -3 16 5 11 7 -4 12 -17 13 -29z m-973 -19 c-6 -3 -17 -4 -24 -1 -10
4 -10 9 -2 23 11 17 13 17 24 2 9 -12 9 -19 2 -24z m452 13 c0 -9 6 -23 13
-31 10 -12 9 -12 -5 -1 -11 8 -18 9 -18 3 0 -6 5 -14 10 -17 10 -6 3 -84 -9
-97 -3 -4 -6 13 -6 37 0 23 3 41 8 38 4 -2 7 1 7 6 0 6 -4 11 -9 11 -5 0 -8
18 -8 39 2 37 17 49 17 12z m987 -3 c-3 -7 -5 -2 -5 12 0 14 2 19 5 13 2 -7 2
-19 0 -25z m21 -46 c-2 -8 -10 -18 -18 -20 -12 -4 -13 -2 -3 10 10 11 10 17 0
27 -9 10 -8 11 6 5 10 -3 17 -13 15 -22z m-1448 8 c0 -5 -7 -10 -15 -10 -8 0
-15 5 -15 10 0 6 7 10 15 10 8 0 15 -4 15 -10z m999 -30 c0 -10 -3 -8 -9 5
-12 27 -12 43 0 25 5 -8 9 -22 9 -30z m-999 -10 c0 -5 -7 -10 -15 -10 -8 0
-15 5 -15 10 0 6 7 10 15 10 8 0 15 -4 15 -10z m468 -22 c1 -26 -1 -29 -9 -16
-5 9 -6 23 -3 32 9 23 11 20 12 -16z m982 11 c0 -5 -4 -7 -10 -4 -5 3 -10 1
-10 -5 0 -6 -5 -8 -10 -5 -6 4 -8 11 -5 16 8 12 35 11 35 -2z m-1465 -69 c11
-19 11 -26 2 -32 -14 -9 -5 -10 16 -2 13 5 12 12 -8 50 -13 24 -20 44 -15 44
5 0 14 -16 21 -35 7 -19 17 -35 22 -35 5 0 7 -7 3 -15 -3 -8 -1 -15 5 -15 6 0
8 -4 4 -9 -7 -13 24 -43 37 -35 6 4 6 -1 -1 -13 -10 -20 -6 -33 11 -33 4 0 7
5 6 11 -2 6 3 14 10 16 22 8 13 -24 -10 -34 -20 -9 -17 -11 19 -9 44 2 74 16
35 16 -12 0 -22 4 -22 9 0 13 43 0 56 -17 6 -8 16 -12 22 -8 7 4 10 2 6 -7 -2
-7 -11 -14 -19 -14 -8 0 -12 4 -9 9 3 4 -2 8 -10 8 -9 0 -16 -5 -16 -11 0 -5
-6 -7 -12 -3 -7 5 -28 7 -47 5 -27 -2 -33 0 -28 13 4 9 -1 20 -11 25 -10 6
-12 11 -4 11 6 0 12 5 12 11 0 5 -4 8 -9 4 -5 -3 -12 4 -16 15 -4 11 -11 18
-16 15 -5 -3 -6 1 -3 10 5 11 2 14 -9 9 -30 -11 -49 11 -52 62 -2 36 0 44 7
29 5 -11 15 -31 23 -45z m974 32 c-13 -21 -3 -132 12 -132 5 0 8 5 7 11 -2 6
2 13 8 16 7 2 11 -4 10 -14 0 -10 5 -17 12 -15 8 1 11 -2 7 -8 -5 -7 -11 -8
-19 -1 -18 15 -39 -3 -32 -27 4 -11 3 -23 -2 -26 -6 -3 -10 11 -10 32 -1 59
-14 146 -25 160 -7 9 -6 11 7 6 9 -3 16 -1 16 5 0 6 5 11 10 11 6 0 6 -7 -1
-18z m31 -13 c0 -13 -4 -18 -12 -13 -8 5 -9 2 -5 -10 4 -10 3 -15 -3 -11 -14
8 -13 23 3 40 16 19 17 18 17 -6z m-512 -39 c4 0 13 5 20 10 6 6 10 7 7 4 -3
-4 0 -13 5 -19 8 -9 6 -14 -4 -18 -10 -4 -13 -1 -9 9 4 10 0 12 -11 8 -10 -4
-15 -12 -12 -19 5 -14 -19 -14 -31 0 -4 4 -3 5 4 1 8 -4 11 1 10 14 -1 11 -7
20 -15 20 -10 0 -10 3 0 14 11 12 14 11 20 -5 4 -10 11 -19 16 -19z m12 30 c0
-5 -5 -10 -11 -10 -5 0 -7 5 -4 10 3 6 8 10 11 10 2 0 4 -4 4 -10z m515 -29
c-3 -5 -1 -12 5 -16 15 -9 12 -25 -5 -25 -15 0 -21 31 -8 43 9 10 15 8 8 -2z
m-25 -21 c0 -5 -2 -10 -4 -10 -3 0 -8 5 -11 10 -3 6 -1 10 4 10 6 0 11 -4 11
-10z m-990 -32 c0 8 9 5 23 -9 15 -15 18 -23 9 -26 -6 -3 -9 -10 -5 -16 3 -7
2 -8 -3 -4 -5 5 -10 13 -10 18 -1 5 -2 14 -3 19 0 6 -6 9 -12 8 -6 -2 -14 4
-16 12 -4 13 -3 13 6 0 8 -11 11 -11 11 -2z m533 -10 c-25 -12 -31 -28 -10
-28 6 0 4 -5 -6 -11 -14 -8 -22 -8 -30 1 -9 8 -8 10 5 5 13 -5 15 -2 11 13 -3
14 1 22 14 25 32 8 39 6 16 -5z m31 -20 c-3 -4 -9 -8 -15 -8 -5 0 -9 4 -9 8 0
5 7 9 15 9 8 0 12 -4 9 -9z m46 -37 c0 -12 56 -31 66 -23 4 4 4 2 1 -4 -4 -6
-19 -9 -34 -7 -20 3 -24 2 -14 -5 11 -8 9 -11 -8 -17 -27 -8 -71 1 -71 16 0 5
10 13 22 18 l22 8 -22 5 c-12 4 -22 2 -22 -4 0 -5 -4 -6 -10 -3 -5 3 -10 11
-10 16 0 6 5 7 10 4 6 -3 10 -1 10 5 0 6 10 4 25 -6 28 -19 34 -9 8 13 -16 13
-16 13 5 3 12 -6 22 -15 22 -19z m-349 6 c-6 -8 -7 -18 -3 -22 4 -5 2 -5 -5
-2 -6 4 -13 1 -16 -5 -2 -7 -7 -10 -11 -7 -4 4 3 16 15 28 26 24 37 28 20 8z"/>
<path d="M4826 2615 c-3 -8 -1 -15 4 -15 6 0 10 7 10 15 0 8 -2 15 -4 15 -2 0
-6 -7 -10 -15z"/>
<path d="M5450 2467 c0 -10 -5 -14 -15 -11 -8 4 -15 1 -15 -5 0 -6 11 -11 24
-11 16 0 23 5 22 15 -3 21 -16 31 -16 12z"/>
<path d="M631 3256 c-6 -7 -7 -17 -3 -21 4 -5 2 -5 -5 -1 -6 3 -14 2 -17 -3
-11 -17 33 -19 48 -2 20 22 20 27 2 34 -8 3 -19 0 -25 -7z m24 -6 c3 -5 1 -10
-4 -10 -6 0 -11 5 -11 10 0 6 2 10 4 10 3 0 8 -4 11 -10z"/>
<path d="M6180 3151 c0 -6 5 -13 11 -16 6 -4 8 -14 5 -22 -5 -11 -2 -13 10 -9
8 3 23 6 32 6 11 1 8 6 -10 16 -16 8 -28 19 -28 24 0 6 -4 10 -10 10 -5 0 -10
-4 -10 -9z"/>
<path d="M4664 3118 c-15 -18 -32 -33 -38 -33 -6 -1 -10 -6 -8 -13 1 -7 -2
-12 -8 -12 -5 0 -7 -6 -4 -14 3 -8 13 -12 22 -9 10 3 13 2 6 -4 -5 -4 -10 -29
-10 -54 1 -33 -3 -45 -11 -42 -7 3 -13 6 -13 7 0 0 4 16 9 34 6 21 6 32 0 32
-6 0 -8 4 -4 9 14 24 -20 20 -46 -5 -23 -22 -29 -37 -29 -68 0 -23 -7 -63 -16
-91 -33 -104 -46 -441 -21 -560 17 -86 31 -84 133 19 67 69 82 90 75 104 -23
45 -30 74 -41 162 -10 80 -9 105 4 160 9 36 16 97 16 135 0 39 7 97 15 130 17
68 20 145 6 145 -5 0 -22 -15 -37 -32z m-20 -59 c-8 -14 -21 -11 -21 5 0 8 6
12 14 9 7 -3 10 -9 7 -14z m-30 -216 c17 7 9 -32 -11 -51 -11 -11 -13 -11 -13
2 0 9 5 16 10 16 7 0 7 6 0 19 -5 11 -9 39 -8 63 l2 43 3 -48 c3 -35 8 -47 17
-44z m-1 -91 c-5 -11 -7 -11 -15 0 -7 9 -8 4 -3 -15 4 -21 3 -27 -6 -21 -9 5
-11 -5 -7 -41 4 -30 2 -43 -3 -34 -11 17 -9 100 2 115 13 16 38 13 32 -4z
m-43 -123 c0 -6 -4 -7 -10 -4 -5 3 -10 11 -10 16 0 6 5 7 10 4 6 -3 10 -11 10
-16z m0 -48 c0 -17 -5 -33 -11 -37 -8 -4 -7 -9 2 -16 11 -8 11 -9 -1 -5 -8 2
-14 9 -13 13 1 5 4 23 8 39 l6 30 -15 -30 c-10 -20 -14 -24 -13 -10 6 48 37
62 37 16z m18 -71 c-2 -29 0 -39 8 -36 7 3 15 -2 18 -10 3 -9 1 -12 -4 -9 -6
3 -16 3 -22 -2 -18 -11 -39 -13 -33 -3 3 5 -3 14 -12 20 -13 8 -14 10 -3 9 34
-3 40 2 40 36 0 19 3 35 6 35 3 0 4 -18 2 -40z m-23 -2 c5 4 5 2 1 -5 -8 -14
-36 -6 -36 9 0 7 5 6 13 -1 8 -6 18 -7 22 -3z m28 -88 c-3 -11 -10 -23 -16
-27 -5 -3 -8 -2 -5 3 3 5 8 17 11 27 9 24 16 22 10 -3z"/>
<path d="M4565 2460 c3 -5 8 -10 11 -10 2 0 4 5 4 10 0 6 -5 10 -11 10 -5 0
-7 -4 -4 -10z"/>
<path d="M4977 3106 c-4 -10 -1 -13 8 -9 8 3 12 9 9 14 -7 12 -11 11 -17 -5z"/>
<path d="M3261 2368 c-7 -11 -8 -17 -2 -13 6 3 11 1 11 -5 0 -6 5 -8 10 -5 6
3 10 1 10 -4 0 -20 16 -11 17 9 3 31 -30 43 -46 18z"/>
<path d="M1017 2339 c-24 -14 -22 -33 2 -19 31 16 35 12 10 -9 -13 -11 -21
-23 -16 -27 4 -4 14 1 23 12 13 16 15 17 10 2 -7 -24 1 -23 13 1 14 25 -16 54
-42 40z"/>
<path d="M3313 2331 c-1 -10 6 -22 15 -25 9 -3 24 -9 32 -12 8 -3 5 4 -7 14
-13 11 -23 25 -23 31 0 19 -16 12 -17 -8z"/>
<path d="M1250 2239 c0 -5 5 -7 10 -4 6 3 10 8 10 11 0 2 -4 4 -10 4 -5 0 -10
-5 -10 -11z"/>
<path d="M430 2209 c0 -3 8 -14 19 -23 18 -16 19 -16 19 6 0 17 -6 24 -19 24
-11 0 -19 -3 -19 -7z"/>
<path d="M477 2204 c-8 -9 11 -44 24 -44 6 0 7 5 3 12 -4 7 -3 8 4 4 19 -12
35 3 21 20 -12 14 -41 19 -52 8z"/>
<path d="M5052 1922 c-13 -17 -21 -36 -17 -41 3 -5 0 -13 -6 -17 -8 -4 -9 -3
-5 4 4 7 1 12 -9 12 -12 0 -15 -6 -10 -22 5 -17 4 -19 -3 -9 -8 11 -19 5 -54
-30 -24 -24 -50 -60 -57 -79 -7 -19 -20 -48 -28 -63 -8 -16 -13 -39 -10 -52 2
-14 0 -22 -5 -19 -8 5 -18 -12 -22 -42 -1 -9 -9 -22 -17 -28 -18 -15 -71 -116
-61 -116 5 0 47 39 93 87 82 86 127 148 162 228 31 69 35 79 48 120 6 22 16
45 21 52 5 7 8 20 6 30 -3 14 -8 12 -26 -15z m-64 -112 c-7 -10 -14 -17 -17
-15 -4 4 18 35 25 35 2 0 -1 -9 -8 -20z"/>
<path d="M2940 1874 c-14 -7 -61 -50 -106 -96 l-80 -83 -17 -100 c-23 -133
-56 -253 -81 -289 -11 -16 -15 -26 -8 -22 21 13 13 -6 -14 -31 -14 -13 -24
-29 -21 -36 2 -6 -3 -18 -10 -26 -8 -7 -12 -20 -9 -27 3 -8 0 -13 -6 -11 -7 1
-12 -3 -13 -10 0 -7 -7 -18 -15 -25 -12 -11 -12 -11 -2 3 10 13 0 28 -63 95
-41 43 -78 86 -81 96 -3 9 -13 20 -24 23 -16 5 -58 55 -46 55 2 0 -11 32 -31
72 -19 40 -39 96 -43 124 -5 29 -23 84 -39 123 -17 38 -31 74 -31 80 0 18 -15
13 -40 -14 -30 -32 -40 -32 -35 3 2 15 2 21 -1 15 -3 -7 -13 -13 -21 -13 -13
0 -13 -3 -3 -15 11 -13 10 -14 -5 -9 -13 5 -16 4 -11 -4 4 -7 3 -12 -3 -12
-17 0 -32 -38 -35 -86 -2 -25 -7 -48 -11 -52 -5 -4 -5 -1 -1 6 4 6 3 12 -3 12
-6 0 -9 -15 -7 -34 1 -19 -1 -33 -6 -30 -4 3 -9 -3 -10 -13 -2 -26 -3 -33 -16
-78 -6 -22 -11 -51 -11 -65 -1 -45 -8 -95 -15 -111 -12 -28 -3 -114 12 -111 8
1 11 -2 7 -8 -3 -6 -10 -8 -14 -5 -9 5 -21 -69 -24 -142 0 -23 -5 -39 -9 -37
-4 3 -9 -7 -9 -23 -2 -34 -5 -56 -14 -103 -4 -24 -3 -32 4 -25 6 6 11 29 13
52 2 32 6 39 16 31 9 -8 10 -13 2 -18 -6 -4 -12 -29 -13 -57 -2 -42 -4 -47
-14 -34 -13 17 -14 17 -18 -39 -1 -14 -5 -33 -10 -43 -4 -10 -3 -17 4 -17 6 0
11 6 11 14 0 31 15 22 17 -10 2 -19 -2 -34 -8 -34 -5 0 -7 4 -4 10 3 5 1 10
-5 10 -7 0 -9 -7 -6 -16 3 -9 6 -18 6 -20 0 -3 5 -2 12 2 7 4 8 3 4 -5 -9 -14
-25 -5 -37 23 -8 18 -9 17 -4 -7 3 -16 2 -26 -3 -23 -9 5 -9 2 -14 -137 -2
-67 0 -87 10 -87 7 0 10 5 6 12 -4 7 -3 8 4 4 7 -4 12 11 15 46 3 50 4 50 4
-10 0 -34 -4 -65 -9 -68 -11 -7 -10 -114 1 -114 9 0 156 146 172 171 5 8 9 61
9 119 0 58 7 132 15 166 7 33 19 107 24 165 11 100 30 241 37 266 6 24 32 2
84 -72 29 -41 60 -77 69 -80 9 -3 30 -24 46 -47 17 -23 47 -59 69 -80 l39 -40
88 88 c81 80 89 92 89 126 0 24 10 54 26 79 30 49 55 93 85 151 21 42 22 42
31 18 20 -53 31 -320 18 -420 -10 -73 -10 -123 -1 -215 14 -152 43 -311 61
-329 4 -4 44 28 88 73 45 45 85 81 91 81 5 0 31 -14 56 -31 36 -24 58 -32 99
-33 48 -1 56 2 116 51 96 77 250 240 291 308 67 110 58 116 -34 22 -47 -49
-95 -89 -106 -90 -11 0 -17 -5 -15 -9 3 -5 10 -6 15 -3 13 9 -8 -43 -33 -77
-19 -28 -25 -30 -66 -25 -47 5 -75 28 -65 53 6 17 -13 19 -23 2 -5 -7 -2 -9 7
-4 8 4 5 0 -5 -8 -11 -9 -25 -16 -30 -15 -6 0 -5 3 2 6 10 4 9 9 -5 19 -17 13
-17 14 2 8 19 -5 19 -5 1 6 -14 10 -20 9 -28 -1 -7 -11 -8 -9 -6 6 1 11 -2 27
-7 35 -5 8 -11 54 -13 102 l-4 88 66 0 c61 0 66 2 66 21 0 18 -3 19 -15 9 -8
-6 -20 -10 -27 -7 -7 3 -4 6 7 7 19 1 19 1 2 14 -16 12 -16 14 -2 20 9 3 14 2
10 -3 -3 -5 9 -12 26 -16 24 -5 28 -9 18 -16 -9 -6 -4 -7 16 -3 39 9 65 22 65
34 0 5 9 12 21 15 11 4 18 9 16 12 -6 6 45 58 58 58 6 0 9 8 9 17 -1 10 4 14
12 11 10 -4 12 0 8 11 -3 9 -10 14 -14 11 -5 -3 -7 3 -6 12 2 13 11 18 30 17
40 -2 75 56 90 149 5 27 0 35 -49 76 -25 20 -81 30 -171 31 -99 0 -116 -10
-252 -143 -138 -136 -162 -195 -162 -403 0 -168 -17 -154 -32 26 -8 102 -8
144 2 184 9 37 10 97 6 202 -4 82 -9 224 -12 317 -6 154 -7 167 -25 167 -13 0
-17 -5 -12 -17 4 -11 3 -14 -5 -9 -7 4 -12 14 -12 22 0 8 -5 12 -10 9 -6 -4
-8 -11 -5 -16 4 -5 1 -9 -4 -9 -6 0 -11 3 -11 8 0 13 67 92 74 87 3 -3 4 -2 1
1 -2 4 0 15 5 25 13 23 1 29 -30 13z m17 -144 c-1 -10 -3 -17 -6 -15 -2 3 -12
-2 -21 -10 -14 -13 -16 -12 -16 4 0 11 6 17 13 14 7 -3 16 2 19 11 8 22 13 20
11 -4z m-826 -8 c-7 -2 -18 1 -23 6 -8 8 -4 9 13 5 13 -4 18 -8 10 -11z m-33
-4 c16 -21 24 -58 13 -58 -6 0 -11 7 -11 15 0 8 -6 12 -14 9 -18 -7 -28 9 -20
30 7 19 18 20 32 4z m797 3 c3 -5 2 -12 -3 -15 -5 -3 -9 1 -9 9 0 17 3 19 12
6z m-755 -21 c0 -5 -4 -10 -10 -10 -5 0 -10 5 -10 10 0 6 5 10 10 10 6 0 10
-4 10 -10z m13 -47 c7 19 27 24 27 6 0 -5 -6 -7 -12 -3 -8 5 -7 0 2 -11 14
-17 13 -18 -13 -13 -18 4 -26 1 -24 -6 2 -6 11 -10 21 -8 9 2 16 -3 16 -9 0
-7 -3 -9 -7 -6 -3 4 -13 1 -21 -6 -11 -8 -14 -9 -9 0 4 7 0 16 -9 21 -11 6
-13 11 -5 16 6 4 11 17 12 29 1 20 2 20 8 -3 6 -21 8 -22 14 -7z m777 14 c0
-8 -6 -14 -14 -14 -8 0 -12 6 -9 14 3 7 9 13 14 13 5 0 9 -6 9 -13z m-863 -32
c0 -8 -4 -12 -9 -9 -5 3 -6 10 -3 15 9 13 12 11 12 -6z m783 11 c0 -2 -8 -10
-17 -17 -16 -13 -17 -12 -4 4 13 16 21 21 21 13z m57 -38 c-3 -7 -5 -2 -5 12
0 14 2 19 5 13 2 -7 2 -19 0 -25z m-716 -1 c-10 -9 -11 -8 -5 6 3 10 9 15 12
12 3 -3 0 -11 -7 -18z m-141 -27 c0 -5 -2 -10 -4 -10 -3 0 -8 5 -11 10 -3 6
-1 10 4 10 6 0 11 -4 11 -10z m140 1 c0 -5 -9 -7 -20 -4 -11 3 -20 7 -20 9 0
2 9 4 20 4 11 0 20 -4 20 -9z m42 -16 c3 0 10 -4 15 -9 5 -5 3 -6 -4 -2 -7 4
-13 3 -13 -3 0 -5 6 -12 13 -15 6 -3 2 -3 -10 0 -13 3 -23 1 -23 -5 0 -11 13
-15 37 -12 17 2 23 -13 12 -29 -6 -10 -9 -11 -9 -2 0 6 -6 12 -14 12 -8 0 -22
7 -30 16 -12 12 -16 12 -17 2 0 -7 -4 -4 -9 7 -12 28 -12 35 1 35 5 0 7 -4 4
-10 -8 -13 5 -13 25 0 10 6 11 10 3 10 -7 0 -13 5 -13 11 0 6 5 7 13 2 6 -4
15 -8 19 -8z m708 5 c0 -5 -5 -10 -11 -10 -5 0 -7 5 -4 10 3 6 8 10 11 10 2 0
4 -4 4 -10z m-153 -25 c-4 -8 -11 -15 -17 -15 -6 0 -6 7 2 20 14 22 24 19 15
-5z m141 -26 c-7 -4 -6 -9 1 -13 6 -4 10 -28 9 -54 l-1 -47 -4 40 c-3 22 -13
48 -24 58 -10 10 -19 23 -19 30 0 7 4 6 10 -3 8 -13 10 -12 10 3 0 15 2 16 14
5 8 -8 10 -15 4 -19z m-691 -41 c13 -12 23 -26 23 -32 0 -6 -5 -4 -10 4 -5 8
-17 15 -26 15 -9 0 -18 8 -20 18 -3 23 5 22 33 -5z m67 -29 c-3 -6 5 -22 17
-36 13 -15 18 -23 12 -19 -18 10 -16 -2 3 -21 13 -13 13 -17 2 -24 -12 -8 -4
-13 15 -10 4 0 7 -3 7 -9 0 -5 8 -7 18 -4 14 5 15 4 2 -5 -13 -10 -8 -15 12
-12 4 0 5 -5 2 -13 -3 -8 0 -17 5 -21 6 -3 9 -11 5 -16 -3 -5 0 -16 6 -24 6
-8 9 -19 5 -25 -3 -5 -1 -10 5 -10 6 0 8 -5 4 -11 -4 -7 -19 2 -41 26 -40 44
-73 92 -55 82 7 -5 12 -3 12 5 0 7 9 2 20 -12 11 -14 18 -30 15 -37 -2 -7 0
-15 4 -18 5 -2 11 3 13 13 8 28 -37 75 -65 68 -12 -3 -16 -3 -9 0 6 3 12 10
12 15 0 6 -4 7 -10 4 -5 -3 -19 10 -31 29 -12 21 -26 33 -32 29 -7 -3 -9 -3
-5 2 4 4 2 15 -5 23 -11 13 -9 14 11 1 12 -8 22 -18 23 -24 0 -5 4 -1 8 10 10
24 2 43 -10 24 -6 -10 -9 -10 -9 -2 0 7 8 17 18 22 16 10 16 10 0 11 -10 0
-18 5 -18 10 0 7 7 7 20 0 11 -6 18 -16 14 -21z m431 12 c3 -5 2 -12 -3 -15
-5 -3 -9 1 -9 9 0 17 3 19 12 6z m-708 -23 c-3 -8 -6 -5 -6 6 -1 11 2 17 5 13
3 -3 4 -12 1 -19z m-18 -50 c-5 -10 -11 -18 -12 -18 -2 0 -3 8 -3 18 0 10 6
19 13 19 8 0 9 -6 2 -19z m921 1 c0 -5 -4 -7 -10 -4 -5 3 -10 -1 -10 -9 0 -9
4 -16 10 -16 5 0 6 -8 3 -17 -6 -15 -7 -15 -14 3 -12 31 -10 54 6 54 8 0 15
-5 15 -11z m-917 -34 c-3 -9 -8 -14 -10 -11 -3 3 -2 9 2 15 9 16 15 13 8 -4z
m-6 -66 c0 -21 -3 -26 -9 -16 -4 9 -5 22 -2 31 9 23 11 20 11 -15z m915 -13
c7 4 8 2 4 -5 -11 -17 -26 -3 -25 22 2 22 2 22 6 -1 3 -13 9 -19 15 -16z m538
14 c0 -6 7 -10 15 -10 11 0 12 -5 5 -25 -6 -15 -6 -26 0 -30 9 -6 14 8 11 28
0 4 3 7 9 7 5 0 6 8 3 17 -5 13 -1 12 17 -5 21 -19 22 -24 10 -32 -12 -8 -11
-10 7 -10 33 0 39 -21 13 -42 -24 -19 -45 -24 -35 -8 3 6 -2 10 -12 11 -16 0
-16 1 2 9 11 5 14 9 8 11 -24 3 -28 5 -48 16 -11 7 -15 13 -9 13 16 0 13 30
-3 30 -8 0 -12 -4 -9 -8 3 -5 -1 -9 -9 -9 -12 0 -12 4 2 21 16 18 14 18 -20
-3 -21 -13 -41 -21 -44 -17 -4 3 -1 6 5 6 7 0 11 6 10 13 -2 7 5 11 16 9 10
-2 16 1 13 5 -3 5 5 10 19 11 13 1 24 -3 24 -8z m-1027 -44 c4 -10 1 -13 -8
-9 -8 3 -12 9 -9 14 7 12 11 11 17 -5z m479 -39 l1 -42 7 45 8 45 -2 -45 c-1
-59 -20 -58 -26 2 -3 26 -2 44 2 42 4 -3 9 -24 10 -47z m418 38 c-10 -12 -7
-15 17 -20 65 -15 113 -53 113 -90 0 -24 -2 -25 -75 -25 -45 0 -90 6 -115 16
-22 9 -46 14 -54 11 -10 -4 -13 6 -12 41 l1 47 52 0 c29 -1 50 1 48 4 -3 2 3
10 13 17 23 18 27 17 12 -1z m-1320 -5 c0 -5 -2 -10 -4 -10 -3 0 -8 5 -11 10
-3 6 -1 10 4 10 6 0 11 -4 11 -10z m-29 -37 c-12 -20 -14 -14 -5 12 4 9 9 14
11 11 3 -2 0 -13 -6 -23z m478 -2 c18 -18 17 -18 -8 -29 l-26 -11 27 4 c30 4
57 -18 37 -31 -7 -4 -9 -3 -5 4 3 6 2 13 -4 17 -6 4 -10 -8 -10 -29 0 -19 -4
-37 -9 -40 -5 -4 -7 4 -4 16 3 13 3 20 -1 17 -9 -8 -69 51 -61 59 3 4 10 0 15
-8 8 -12 10 -12 16 3 3 9 10 14 15 11 5 -3 9 0 9 5 0 6 -4 11 -10 11 -5 0 -10
5 -10 10 0 15 8 12 29 -9z m461 -67 c0 -2 -7 -4 -15 -4 -8 0 -15 4 -15 10 0 5
7 7 15 4 8 -4 15 -8 15 -10z m-930 -12 c0 -5 -7 -17 -15 -28 -14 -18 -14 -17
-4 9 12 27 19 34 19 19z m521 -19 c-8 -15 -10 -15 -11 -2 0 17 10 32 18 25 2
-3 -1 -13 -7 -23z m-7 -25 c7 -5 6 -8 -4 -8 -12 -1 -11 -3 3 -11 9 -6 15 -14
12 -20 -4 -5 -1 -9 4 -9 6 0 11 -8 11 -17 -1 -15 -2 -16 -9 -3 -5 8 -8 18 -8
22 1 4 -8 14 -19 22 -16 12 -20 22 -16 43 5 23 7 24 10 8 2 -11 9 -23 16 -27z
m408 10 c-8 -8 -9 -4 -5 13 4 13 8 18 11 10 2 -7 -1 -18 -6 -23z m-357 -10
c-3 -12 -10 -26 -16 -32 -8 -8 -8 -5 0 12 6 12 9 22 6 22 -4 0 -3 5 0 10 10
16 14 11 10 -12z m330 -30 c-6 -22 -6 -22 14 2 23 28 28 15 6 -14 -8 -11 -15
-35 -15 -54 0 -18 -4 -31 -9 -28 -5 4 -11 0 -14 -6 -2 -7 -4 -1 -3 14 0 14 4
24 8 22 4 -3 5 16 1 41 -3 31 -1 45 7 45 7 0 9 -8 5 -22z m-905 2 c0 -5 -7 -7
-15 -4 -8 4 -15 8 -15 10 0 2 7 4 15 4 8 0 15 -4 15 -10z m1183 -44 c-4 -6 -8
-6 -10 1 -3 7 -10 10 -18 7 -7 -3 -16 -1 -20 5 -4 7 0 8 11 4 12 -4 15 -3 10
6 -6 10 -4 10 12 0 12 -7 18 -18 15 -23z m44 8 c0 -7 -4 -11 -8 -8 -4 2 -9 -2
-12 -8 -3 -7 -5 -4 -4 8 1 22 24 30 24 8z m33 -20 c0 -8 -4 -13 -8 -10 -4 2
-14 1 -22 -5 -13 -7 -12 -9 3 -9 9 0 17 -5 17 -10 0 -7 -6 -7 -17 -2 -10 5
-23 7 -29 5 -6 -2 -15 4 -18 14 -6 14 -4 15 5 6 9 -9 17 -8 35 4 13 8 21 20
17 26 -3 6 -1 7 5 3 7 -4 12 -14 12 -22z m-735 6 c-3 -5 0 -10 7 -11 9 0 10
-2 1 -5 -7 -3 -9 -12 -6 -21 4 -11 2 -14 -5 -9 -7 4 -10 17 -8 29 6 28 5 27
12 27 3 0 2 -4 -1 -10z m412 -52 c-2 -13 -4 -5 -4 17 -1 22 1 32 4 23 2 -10 2
-28 0 -40z m227 44 c2 -4 -4 -8 -15 -8 -10 0 -19 4 -19 8 0 4 6 8 14 8 8 0 17
-4 20 -8z m196 -4 c0 -4 -4 -8 -9 -8 -6 0 -12 4 -15 8 -3 5 1 9 9 9 8 0 15 -4
15 -9z m24 -3 c3 -8 1 -15 -4 -15 -6 0 -10 7 -10 15 0 8 2 15 4 15 2 0 6 -7
10 -15z m46 6 c0 -5 -7 -12 -16 -15 -14 -5 -15 -4 -4 9 14 17 20 19 20 6z
m-158 -33 c-7 -7 -12 -8 -12 -2 0 14 12 26 19 19 2 -3 -1 -11 -7 -17z m-1288
-3 c-7 -16 -24 -21 -24 -6 0 8 7 13 27 20 1 1 0 -6 -3 -14z m1179 3 c2 -7 -3
-19 -12 -26 -9 -8 -10 -11 -3 -7 6 3 12 1 12 -4 0 -6 -7 -11 -15 -11 -18 0
-21 -65 -3 -76 8 -5 9 0 6 14 -4 12 -2 22 3 22 16 0 9 -39 -8 -49 -10 -5 -15
-13 -11 -17 4 -4 14 -1 23 6 24 20 18 2 -10 -28 -28 -31 -27 -36 -26 78 0 48
4 67 16 77 10 6 14 16 10 22 -3 6 -2 11 4 11 5 0 11 -6 14 -12z m-653 -32 c0
-2 -8 -10 -17 -17 -16 -13 -17 -12 -4 4 13 16 21 21 21 13z m424 -17 c-3 -5
-14 -5 -25 1 -26 14 -24 18 6 12 14 -2 22 -8 19 -13z m-47 -31 c-3 -8 -6 -5
-6 6 -1 11 2 17 5 13 3 -3 4 -12 1 -19z m20 0 c-3 -8 -6 -5 -6 6 -1 11 2 17 5
13 3 -3 4 -12 1 -19z m10 -42 c-9 -10 -14 -11 -19 -2 -6 8 -8 8 -8 -1 0 -7 -5
-13 -11 -13 -8 0 -8 5 1 15 7 8 16 12 21 9 5 -3 9 0 9 6 0 6 4 8 10 5 6 -4 5
-11 -3 -19z m10 -43 c-3 -10 -5 -4 -5 12 0 17 2 24 5 18 2 -7 2 -21 0 -30z
m-24 10 c-19 -7 -16 -21 7 -28 11 -4 18 -10 15 -15 -8 -13 6 -41 17 -34 6 4 7
-2 3 -16 -4 -13 -3 -20 2 -17 5 4 10 0 10 -8 0 -10 -4 -12 -12 -5 -7 5 -15 6
-20 2 -4 -4 -4 3 -1 16 5 13 3 22 -3 22 -6 0 -11 -4 -11 -10 0 -5 -8 -10 -17
-10 -17 1 -17 1 0 11 21 12 22 35 2 43 -25 9 -17 57 9 55 6 0 5 -3 -1 -6z
m282 -43 c-3 -10 0 -22 6 -26 8 -4 9 -3 5 4 -4 7 -3 12 2 12 6 0 12 -6 15 -14
4 -10 -1 -13 -19 -11 -26 3 -30 -5 -12 -23 6 -6 13 -19 14 -27 2 -12 -2 -13
-17 -5 -10 6 -19 13 -19 16 0 3 5 2 10 -1 6 -3 10 -1 10 4 0 6 -6 11 -14 11
-18 0 -46 27 -46 43 0 8 3 7 9 -2 7 -10 11 -8 16 10 4 13 12 27 18 31 17 10
28 -2 22 -22z m32 -72 c2 -18 0 -20 -7 -8 -12 18 -13 30 -2 30 4 0 9 -10 9
-22z m-307 -7 c0 -6 -4 -12 -8 -15 -5 -3 -9 1 -9 9 0 8 4 15 9 15 4 0 8 -4 8
-9z m21 -44 c-6 -15 -7 -29 -2 -31 12 -8 20 4 15 19 -3 7 2 15 10 18 13 5 13
2 5 -20 -15 -41 -19 -44 -34 -29 -8 8 -11 23 -8 36 5 18 3 21 -8 16 -8 -4 -5
0 5 8 25 20 29 15 17 -17z m-1002 -34 c-7 -7 -15 -28 -20 -46 -6 -25 -7 -20
-4 23 2 30 4 60 5 65 0 6 7 1 15 -9 11 -14 12 -23 4 -33z m1049 2 c-4 -17 0
-29 11 -35 15 -9 15 -9 -1 -10 -9 0 -18 -3 -21 -7 -2 -5 -2 -2 0 5 1 8 -3 12
-9 9 -7 -2 -12 -10 -10 -16 1 -6 -2 -11 -8 -11 -15 0 -12 9 10 37 11 14 20 32
20 39 0 8 3 14 6 14 4 0 4 -11 2 -25z m-18 -79 c0 -3 -4 -8 -10 -11 -5 -3 -10
-1 -10 4 0 6 5 11 10 11 6 0 10 -2 10 -4z"/>
<path d="M2076 1711 c-4 -7 -5 -15 -2 -18 9 -9 19 4 14 18 -4 11 -6 11 -12 0z"/>
<path d="M2302 1415 c4 -4 3 -14 -3 -21 -7 -9 -7 -19 1 -35 10 -17 14 -19 21
-8 4 7 3 19 -2 26 -6 7 -8 17 -5 22 4 5 1 13 -6 17 -7 4 -10 4 -6 -1z"/>
<path d="M2350 1272 c6 -13 14 -21 18 -18 3 4 -2 14 -12 24 -18 16 -18 16 -6
-6z"/>
<path d="M2390 1220 c0 -5 5 -10 11 -10 5 0 7 5 4 10 -3 6 -8 10 -11 10 -2 0
-4 -4 -4 -10z"/>
<path d="M3506 1243 c-4 -10 -1 -20 9 -25 8 -5 13 -13 10 -19 -9 -14 5 -11 21
6 14 13 13 15 -4 15 -26 0 -34 11 -21 27 7 8 8 13 1 13 -5 0 -13 -8 -16 -17z"/>
<path d="M2445 1140 c3 -5 8 -10 11 -10 2 0 4 5 4 10 0 6 -5 10 -11 10 -5 0
-7 -4 -4 -10z"/>
<path d="M3145 770 c-3 -5 -1 -10 4 -10 6 0 11 5 11 10 0 6 -2 10 -4 10 -3 0
-8 -4 -11 -10z"/>
<path d="M3126 735 c-3 -8 -1 -17 3 -20 5 -3 11 2 15 10 3 8 1 17 -3 20 -5 3
-11 -2 -15 -10z"/>
<path d="M2936 1799 c-9 -12 -14 -24 -11 -27 4 -4 13 2 21 12 9 13 14 15 14 6
0 -7 3 -11 6 -7 3 3 2 13 -3 21 -8 14 -11 13 -27 -5z"/>
<path d="M5424 1519 c-16 -17 -40 -36 -54 -43 -14 -6 -25 -19 -24 -27 1 -8 -7
-15 -17 -15 -21 0 -25 12 -7 18 9 3 9 6 0 12 -7 4 -12 2 -12 -4 0 -6 -4 -9 -9
-6 -5 3 -16 -6 -25 -19 -9 -14 -21 -23 -26 -20 -4 3 -10 0 -12 -5 -2 -6 -13
-12 -26 -13 -12 0 -22 -5 -22 -10 0 -4 -4 -5 -10 -2 -5 3 -7 0 -4 -8 3 -9 -22
-41 -64 -83 -38 -38 -79 -85 -92 -104 -12 -19 -20 -27 -16 -17 3 9 1 17 -4 17
-6 0 -10 -10 -10 -22 0 -19 -2 -20 -11 -8 -9 12 -10 11 -6 -8 3 -12 2 -20 -3
-17 -12 7 -20 -21 -9 -32 6 -6 3 -15 -8 -24 -16 -13 -17 -12 -4 4 7 9 9 17 3
17 -12 0 -23 -26 -14 -35 4 -3 7 -20 8 -36 1 -21 -2 -27 -9 -20 -19 19 -25 12
-23 -23 3 -31 1 -33 -15 -23 -20 12 -19 32 2 140 12 62 12 354 0 362 -5 3 -31
-19 -58 -50 -26 -30 -53 -55 -59 -55 -6 0 -17 -7 -24 -15 -7 -8 -16 -13 -20
-10 -19 12 -27 -63 -10 -95 11 -21 4 -50 -14 -50 -6 0 -12 -19 -14 -43 -1 -23
-5 -50 -8 -59 -3 -10 -1 -18 5 -18 6 0 11 -8 11 -17 0 -16 -2 -16 -11 -3 -9
12 -10 11 -6 -7 3 -13 0 -23 -6 -23 -8 0 -7 -4 1 -12 7 -7 12 -17 12 -23 0 -5
-4 -4 -9 3 -8 13 -7 -23 3 -88 2 -14 1 -17 -1 -7 -7 29 -18 19 -21 -21 -1 -20
-4 -46 -6 -57 -2 -13 4 -22 18 -27 20 -6 20 -6 -2 -7 -13 -1 -20 -6 -17 -11 3
-6 1 -10 -4 -10 -15 0 -14 -37 2 -43 7 -3 5 -6 -5 -6 -20 -1 -24 -16 -6 -27 7
-4 8 -3 4 4 -4 7 -3 12 2 12 6 0 9 -11 8 -24 -1 -20 -4 -22 -15 -13 -12 10
-14 9 -8 -5 3 -10 2 -18 -3 -18 -14 0 -12 -27 2 -36 6 -4 8 -3 5 3 -4 6 0 16
8 23 18 15 19 7 4 -21 -6 -12 -17 -18 -25 -15 -9 3 -12 1 -9 -5 4 -5 1 -17 -7
-26 -7 -9 -8 -14 -3 -11 13 7 38 -19 26 -27 -5 -3 -11 1 -14 7 -2 7 -8 9 -13
5 -5 -5 -2 -14 8 -21 14 -10 15 -22 7 -81 -9 -75 -31 -161 -48 -194 -6 -11
-11 -23 -11 -27 0 -13 182 181 197 211 20 37 52 169 54 215 0 19 3 28 6 20 39
-112 114 -165 247 -176 71 -6 185 8 195 24 3 5 19 12 35 16 19 5 70 47 136
112 121 119 146 139 155 124 4 -6 11 -7 17 -4 6 4 9 1 6 -7 -3 -8 -14 -13 -24
-12 -10 1 -13 0 -6 -3 6 -3 10 -9 8 -13 -3 -3 3 -17 13 -29 16 -22 17 -22 18
-3 1 11 -5 21 -13 23 -12 2 -11 5 3 14 16 10 18 6 21 -34 2 -37 0 -44 -13 -38
-13 5 -14 2 -4 -16 8 -15 13 -17 19 -8 6 9 9 9 11 1 3 -7 16 -14 29 -15 14 -2
32 -7 41 -10 10 -5 16 -2 16 9 0 11 -6 15 -19 12 -10 -3 -15 -1 -12 5 4 6 0 6
-13 0 -15 -8 -22 -7 -31 8 -7 12 -8 21 -2 25 6 3 10 -1 10 -9 0 -9 5 -16 11
-16 5 0 7 5 4 10 -3 6 -2 10 4 10 5 0 13 -4 16 -10 3 -6 14 -10 23 -10 13 0
13 2 -4 15 -18 14 -17 14 9 3 20 -8 24 -14 15 -21 -8 -5 -2 -6 17 -3 19 4 25
3 16 -2 -11 -8 -11 -11 0 -18 7 -4 14 -3 17 4 4 14 52 16 52 2 0 -5 -7 -7 -15
-4 -8 4 -22 1 -31 -6 -11 -10 -18 -10 -26 -2 -16 16 -25 15 -25 -1 0 -13 13
-15 76 -9 23 2 113 77 104 86 -4 3 -1 6 5 6 6 0 9 8 6 18 -5 14 -4 14 4 2 6
-8 8 -18 6 -22 -3 -4 -1 -8 4 -8 10 0 192 174 192 183 0 3 -26 -8 -57 -25 -50
-27 -69 -31 -135 -32 -70 -1 -80 2 -103 24 -14 14 -36 36 -50 50 -33 33 -83
139 -95 202 -6 27 -12 53 -15 57 -2 5 -20 71 -40 147 -41 161 -60 204 -87 196
-11 -2 -18 1 -18 10 0 12 -41 38 -81 51 -10 3 -28 -6 -45 -24z m-54 -59 c-14
-9 -7 -14 13 -11 5 1 6 -3 2 -9 -5 -8 -11 -8 -21 1 -15 12 -10 29 9 29 7 0 6
-4 -3 -10z m20 -50 c0 -5 -5 -10 -11 -10 -5 0 -7 5 -4 10 3 6 8 10 11 10 2 0
4 -4 4 -10z m32 -52 c-8 -8 -15 -8 -26 1 -11 9 -15 9 -18 -1 -3 -7 -7 -2 -10
10 -5 19 -3 22 13 17 12 -4 19 -2 19 6 0 9 5 8 17 -4 13 -13 14 -20 5 -29z
m-77 22 c-3 -5 -1 -10 6 -10 7 0 10 -3 6 -6 -9 -9 -28 6 -22 17 4 5 8 9 11 9
3 0 2 -4 -1 -10z m-20 -30 c4 -6 14 -8 23 -6 13 4 22 -5 35 -37 9 -23 17 -48
17 -55 0 -6 6 -12 14 -12 8 0 14 -6 13 -12 -1 -35 4 -49 15 -42 8 5 9 0 6 -14
-4 -12 -2 -22 4 -22 6 0 8 -7 4 -15 -3 -8 -1 -15 5 -15 6 0 9 -7 5 -15 -3 -8
2 -19 12 -24 12 -7 13 -10 3 -11 -9 0 -11 -6 -6 -17 4 -10 9 -66 11 -125 4
-103 -4 -148 -38 -224 -21 -46 -199 -62 -273 -24 -22 11 -46 20 -55 20 -26 1
-66 45 -85 93 -14 36 -16 68 -14 155 4 107 5 111 49 196 43 84 80 130 152 188
34 28 91 38 103 18z m88 -13 c4 3 7 1 7 -7 0 -10 3 -10 15 0 12 10 15 10 15
-1 0 -8 13 -28 30 -45 16 -18 26 -34 23 -38 -3 -3 0 -12 7 -21 15 -18 23 -68
9 -59 -5 3 -9 0 -9 -7 0 -7 -3 -9 -6 -6 -4 4 -1 13 6 21 10 13 8 20 -9 42 -11
14 -19 30 -16 34 3 4 -3 14 -12 21 -15 12 -16 12 -10 -3 9 -25 0 -22 -14 3 -8
15 -8 19 0 15 17 -11 13 10 -4 24 -12 10 -15 10 -15 -1 0 -11 -2 -11 -10 1 -8
12 -12 13 -19 2 -6 -11 -10 -10 -15 3 -10 28 -7 39 7 26 8 -6 17 -8 20 -4z
m-643 -12 c0 -2 -9 -9 -20 -15 -12 -6 -20 -7 -20 -1 0 5 8 12 18 14 9 3 18 5
20 6 1 0 2 -1 2 -4z m651 -62 c-12 -20 -14 -14 -5 12 4 9 9 14 11 11 3 -2 0
-13 -6 -23z m52 -52 c9 -16 16 -42 16 -58 -1 -16 -3 -21 -6 -10 -2 9 -10 17
-16 17 -9 0 -9 2 0 8 10 6 9 13 -3 30 -8 12 -20 20 -25 17 -10 -7 -12 8 -2 18
11 12 18 8 36 -22z m-733 -46 c0 -8 -4 -15 -10 -15 -5 0 -7 7 -4 15 4 8 8 15
10 15 2 0 4 -7 4 -15z m798 -45 c-3 -16 -1 -30 3 -30 4 0 6 -16 4 -35 -3 -32
-1 -34 13 -23 13 11 14 11 7 -2 -5 -8 -10 -19 -11 -25 -1 -5 -7 -21 -13 -35
-10 -22 -11 -21 -6 15 2 22 1 32 -3 22 -7 -16 -8 -16 -25 3 -9 11 -14 20 -11
20 4 0 3 6 -2 13 -5 7 -1 4 9 -7 16 -17 20 -18 28 -5 5 7 9 21 9 29 0 12 -2
13 -9 1 -11 -17 -31 -6 -30 17 0 14 2 13 9 -3 10 -23 14 -10 19 53 0 12 4 22
7 22 4 0 4 -13 2 -30z m-811 -10 c-2 -23 -10 -17 -12 10 -1 10 2 17 6 14 4 -2
7 -13 6 -24z m793 16 c0 -3 -4 -8 -10 -11 -5 -3 -10 -1 -10 4 0 6 5 11 10 11
6 0 10 -2 10 -4z m-575 -145 c3 -5 1 -12 -5 -16 -5 -3 -10 1 -10 9 0 18 6 21
15 7z m635 -46 c4 3 6 -4 3 -15 -3 -11 0 -20 6 -20 6 0 11 -7 11 -16 0 -13 -4
-11 -18 7 -23 30 -33 66 -24 87 5 12 8 7 10 -16 2 -18 7 -30 12 -27z m-648 -7
c-9 -9 -15 -9 -24 1 -11 10 -10 11 5 6 10 -5 17 -2 17 6 0 7 3 9 7 6 4 -4 1
-13 -5 -19z m611 -5 c-3 -7 -9 -13 -14 -13 -5 0 -9 6 -9 13 0 8 6 14 14 14 8
0 12 -6 9 -14z m-618 -23 c3 -5 2 -10 -4 -10 -5 0 -13 5 -16 10 -3 6 -2 10 4
10 5 0 13 -4 16 -10z m645 -49 c-1 -11 -5 -8 -14 8 -13 23 -14 23 -24 5 -11
-18 -11 -18 -12 3 0 12 6 23 13 26 14 6 37 -20 37 -42z m-669 -2 c-9 -22 -10
-22 -10 -3 -1 11 2 24 6 27 12 12 14 0 4 -24z m32 -16 c-10 -26 -19 -12 -15
19 4 28 6 30 12 13 4 -11 5 -26 3 -32z m677 17 c0 -5 -5 -10 -11 -10 -5 0 -7
5 -4 10 3 6 8 10 11 10 2 0 4 -4 4 -10z m-95 -20 c-3 -5 -1 -10 4 -10 19 0 12
-29 -9 -40 -11 -6 -20 -16 -20 -22 0 -7 5 -6 15 2 13 11 14 10 9 -4 -3 -9 -10
-16 -15 -16 -5 0 -9 -6 -9 -14 0 -7 -7 -19 -15 -26 -13 -11 -14 -9 -1 15 8 15
12 33 10 40 -3 7 -1 16 5 19 6 4 8 14 5 24 -5 14 -4 15 5 2 5 -8 13 -11 17 -7
4 4 2 13 -4 19 -15 15 -15 28 -1 28 5 0 7 -4 4 -10z m94 -17 c-9 -10 -14 -11
-19 -2 -6 8 -9 8 -14 0 -4 -6 -12 -9 -17 -6 -19 12 -8 21 26 22 30 1 34 -2 24
-14z m-712 -45 c-3 -7 -5 -2 -5 12 0 14 2 19 5 13 2 -7 2 -19 0 -25z m743 1
c15 -28 5 -23 -15 7 -9 15 -12 23 -6 20 6 -4 16 -16 21 -27z m-693 -21 c-3 -7
-5 -2 -5 12 0 14 2 19 5 13 2 -7 2 -19 0 -25z m-267 -3 c-7 -9 -15 -13 -17
-11 -6 6 20 36 26 30 2 -2 -2 -10 -9 -19z m1001 -60 c8 -16 6 -15 -10 4 -12
13 -21 28 -21 35 0 12 14 -5 31 -39z m-685 13 l19 -23 -24 20 -24 20 7 -20 c5
-15 4 -17 -5 -8 -6 6 -8 16 -5 22 9 15 10 14 32 -11z m-31 -28 c3 -6 1 -10 -4
-10 -6 0 -11 6 -11 13 0 9 -2 9 -9 -1 -6 -11 -10 -9 -14 7 -4 18 -2 19 13 11
11 -6 22 -15 25 -20z m32 -14 c-4 -10 -1 -13 8 -9 8 3 12 9 9 14 -9 15 3 10
17 -8 10 -11 10 -14 2 -9 -7 4 -13 2 -13 -3 0 -6 8 -11 17 -11 15 0 14 -2 -3
-15 -19 -14 -19 -14 1 -15 11 0 27 -5 35 -10 11 -8 7 -9 -15 -4 -40 9 -78 45
-69 67 3 9 8 17 11 17 3 0 3 -7 0 -14z m-19 -36 c7 -11 11 -20 9 -20 -2 0 -12
9 -22 20 -10 11 -14 20 -9 20 5 0 15 -9 22 -20z m152 -5 c0 -8 -5 -15 -11 -15
-5 0 -7 -5 -3 -11 4 -7 -7 -4 -24 7 -17 10 -29 20 -27 22 3 3 11 -1 19 -7 8
-7 20 -10 27 -6 8 6 7 10 -2 16 -11 7 -10 9 4 9 9 0 17 -7 17 -15z m40 -6 c0
-14 -17 -10 -23 5 -4 10 -1 13 9 9 7 -3 14 -9 14 -14z m205 11 c6 -10 -12 -23
-37 -27 -11 -2 -18 3 -18 12 0 8 -4 15 -10 15 -5 0 -9 -4 -7 -9 1 -5 -1 -9 -5
-10 -25 -3 -30 1 -13 12 21 16 82 21 90 7z m35 6 c0 -3 -4 -8 -10 -11 -5 -3
-10 -1 -10 4 0 6 5 11 10 11 6 0 10 -2 10 -4z m-175 -31 c22 -8 35 -14 28 -15
-6 0 -19 -3 -29 -7 -12 -4 -15 -3 -10 5 4 7 3 12 -3 12 -5 0 -11 -3 -14 -7 -2
-5 -2 -3 -1 4 2 6 -2 14 -9 17 -28 11 1 5 38 -9z"/>
<path d="M5405 1370 c3 -5 8 -10 11 -10 2 0 4 5 4 10 0 6 -5 10 -11 10 -5 0
-7 -4 -4 -10z"/>
<path d="M5000 631 c0 -5 5 -13 10 -16 6 -3 10 -2 10 4 0 5 -4 13 -10 16 -5 3
-10 2 -10 -4z"/>
<path d="M5336 612 c-3 -5 1 -9 9 -9 8 0 15 4 15 9 0 4 -4 8 -9 8 -6 0 -12 -4
-15 -8z"/>
<path d="M4592 1443 c-60 -3 -102 -9 -116 -18 -12 -8 -55 -19 -95 -25 -41 -6
-85 -13 -98 -17 -16 -3 -28 -1 -33 8 -7 11 -12 10 -28 -4 -18 -16 -40 -18
-195 -16 -96 1 -180 -2 -188 -7 -31 -20 -59 -61 -53 -77 3 -9 10 -14 15 -11 5
3 7 9 5 13 -3 4 5 8 17 8 16 2 18 0 7 -7 -10 -6 -4 -10 21 -13 l34 -4 -35 0
c-53 -1 -56 -2 -40 -13 9 -6 10 -10 3 -10 -6 0 -14 4 -18 9 -8 14 -64 -5 -91
-30 -13 -12 -21 -26 -17 -32 3 -5 76 -8 183 -6 98 2 182 0 187 -4 26 -27 42
-508 19 -579 -28 -84 -39 -134 -46 -218 -12 -132 -28 -162 -105 -199 -25 -11
-69 27 -92 79 -48 112 -93 269 -93 325 0 116 -1 116 -102 14 l-91 -91 7 -85
c4 -47 15 -112 26 -146 10 -34 21 -75 25 -92 10 -46 64 -151 90 -175 l23 -21
38 20 c22 11 50 25 64 32 14 6 33 15 42 20 10 5 24 9 32 9 17 0 56 38 56 54 0
6 -5 4 -10 -4 -6 -10 -10 -11 -10 -2 0 16 -32 16 -50 -1 -12 -10 -12 -9 -1 5
15 20 2 25 -17 6 -9 -9 -12 -9 -12 0 0 13 3 14 50 16 17 0 30 -3 30 -7 0 -4 9
-3 20 3 16 9 18 8 14 -5 -5 -11 1 -15 20 -15 24 0 31 9 27 34 -4 19 71 96 92
95 21 0 21 -1 2 -9 -11 -5 -14 -9 -7 -9 7 -1 10 -6 7 -11 -4 -6 -10 -8 -14 -6
-4 3 -8 -1 -8 -9 0 -8 4 -15 8 -15 13 0 51 79 44 90 -3 6 -2 10 4 10 6 0 10
12 10 28 1 15 1 38 1 52 1 14 -4 26 -10 28 -12 4 -14 32 -1 32 5 0 12 -12 16
-27 l7 -28 9 24 c6 15 6 28 0 35 -6 7 -8 23 -5 37 4 17 3 20 -4 10 -7 -10 -9
-6 -9 14 0 17 2 22 7 15 5 -8 9 12 11 44 3 43 1 55 -9 51 -7 -3 -10 0 -7 6 15
23 27 0 29 -54 0 -31 -1 -57 -4 -57 -3 0 -5 -14 -6 -30 -1 -40 9 -38 29 5 11
22 17 60 17 101 0 43 9 97 26 153 26 84 27 91 22 288 l-5 201 36 15 c22 10 82
18 151 21 104 4 116 7 131 28 10 12 15 26 12 31 -3 5 21 36 53 68 32 32 54 58
49 57 -6 -1 -52 -4 -103 -5z m-61 -141 c-7 -2 -18 1 -23 6 -8 8 -4 9 13 5 13
-4 18 -8 10 -11z m44 0 c-3 -3 -11 0 -18 7 -9 10 -8 11 6 5 10 -3 15 -9 12
-12z m-257 -9 c-6 -7 -16 -13 -22 -13 -6 0 -5 4 3 9 11 7 10 10 -5 14 -12 3
-9 4 8 4 21 -1 24 -4 16 -14z m-390 0 c-10 -2 -28 -2 -40 0 -13 2 -5 4 17 4
22 1 32 -1 23 -4z m222 -3 c-13 -8 -13 -10 2 -10 9 0 20 5 23 10 8 12 52 13
59 1 3 -4 -6 -6 -19 -3 -15 2 -25 0 -25 -7 0 -6 10 -11 23 -12 12 0 17 -3 11
-5 -6 -3 -31 0 -55 5 -28 6 -45 7 -47 1 -5 -13 -22 -13 -22 0 0 6 10 15 23 20
30 12 46 12 27 0z m360 -1 c12 -9 11 -10 -7 -6 -13 3 -23 0 -23 -6 0 -6 -3 -8
-6 -4 -7 7 4 27 14 27 4 0 14 -5 22 -11z m-483 -5 c-3 -3 -12 -4 -19 -1 -8 3
-5 6 6 6 11 1 17 -2 13 -5z m58 -4 c3 -5 1 -10 -4 -10 -6 0 -11 5 -11 10 0 6
2 10 4 10 3 0 8 -4 11 -10z m185 0 c0 -5 -2 -10 -4 -10 -3 0 -8 5 -11 10 -3 6
-1 10 4 10 6 0 11 -4 11 -10z m297 4 c-3 -3 -12 -4 -19 -1 -8 3 -5 6 6 6 11 1
17 -2 13 -5z m-613 -19 c-4 -8 -9 -15 -13 -15 -4 0 -8 7 -8 15 0 8 6 15 13 15
8 0 11 -6 8 -15z m79 -2 c-7 -2 -19 -2 -25 0 -7 3 -2 5 12 5 14 0 19 -2 13 -5z
m117 -18 c0 -8 4 -15 9 -15 13 0 6 -34 -8 -36 -7 -2 -7 0 -1 3 7 3 7 10 2 16
-15 20 -22 47 -12 47 6 0 10 -7 10 -15z m-23 -37 c-3 -8 -6 -5 -6 6 -1 11 2
17 5 13 3 -3 4 -12 1 -19z m23 -33 c8 0 19 5 23 10 5 6 5 -1 1 -15 -3 -14 -11
-30 -16 -37 -5 -7 -7 -18 -3 -25 3 -7 -2 -3 -11 10 -10 13 -19 36 -20 50 -2
15 0 22 4 17 4 -6 14 -10 22 -10z m38 -80 c-1 -20 -5 -32 -9 -28 -7 7 -1 63 7
63 2 0 3 -16 2 -35z m1 -70 c0 -5 -11 4 -24 20 -14 17 -25 35 -25 40 0 6 11
-3 25 -20 13 -16 24 -34 24 -40z m-9 -141 c0 -74 -4 -125 -10 -129 -6 -4 -8
-14 -6 -23 3 -10 1 -24 -4 -32 -7 -11 -10 -3 -10 28 0 26 4 41 10 37 6 -4 10
38 10 120 0 93 -3 124 -12 119 -7 -4 -8 -3 -4 4 4 7 2 12 -3 12 -6 0 -11 5
-11 12 0 6 9 3 20 -7 18 -16 20 -31 20 -141z m-21 61 c0 -5 -4 -3 -9 5 -5 8
-9 22 -9 30 0 16 17 -16 18 -35z m28 -250 c0 -8 -6 -16 -13 -19 -8 -3 -11 -13
-8 -23 5 -14 4 -15 -4 -4 -7 10 -6 21 5 38 18 27 20 28 20 8z m-471 -66 c-1
-25 -43 -59 -43 -35 0 9 6 12 16 8 14 -5 14 -4 1 13 -9 11 -10 16 -2 11 7 -4
12 -1 12 8 0 9 4 16 9 16 4 0 8 -10 7 -21z m-14 -61 c-13 -13 -16 -32 -4 -24
13 8 14 -55 1 -70 -9 -11 -9 -14 0 -14 7 0 9 -5 5 -11 -4 -8 -9 -7 -15 2 -4 8
-4 18 1 23 15 15 12 56 -5 62 -11 5 -12 11 -4 25 5 10 15 19 21 19 9 0 9 -3 0
-12z m-20 -212 c7 4 8 3 4 -5 -17 -27 -26 6 -24 92 l2 92 3 -93 c3 -65 7 -91
15 -86z m18 60 c0 -3 -4 -8 -10 -11 -5 -3 -10 -1 -10 4 0 6 5 11 10 11 6 0 10
-2 10 -4z m15 -75 c-3 -5 1 -12 7 -14 8 -3 6 -6 -4 -6 -10 -1 -18 -8 -18 -16
0 -8 -4 -15 -10 -15 -5 0 -7 7 -4 15 5 11 2 13 -10 9 -9 -3 -16 -1 -16 4 0 6
9 9 20 7 17 -3 20 2 20 28 1 27 2 29 11 14 5 -9 8 -21 4 -26z m425 -21 c0 -5
-4 -10 -10 -10 -5 0 -10 5 -10 10 0 6 5 10 10 10 6 0 10 -4 10 -10z m-403 -40
c1 -16 -3 -32 -8 -36 -7 -4 -9 1 -4 15 5 16 3 20 -9 15 -13 -5 -13 -10 -4 -27
8 -15 8 -22 0 -25 -13 -4 -4 -32 10 -32 5 0 6 6 2 13 -5 8 -2 8 9 -2 9 -7 17
-19 17 -26 0 -14 25 -27 34 -18 12 12 6 25 -10 19 -8 -3 -13 -2 -10 3 3 4 -3
17 -14 29 -12 12 -16 23 -10 27 14 9 30 -3 24 -18 -5 -13 54 -64 69 -59 10 3
9 -10 -3 -28 -9 -15 -11 -13 -14 12 0 6 -8 13 -16 15 -12 4 -12 3 -2 -5 11 -7
10 -13 -4 -27 -12 -11 -19 -14 -22 -6 -2 6 -7 9 -11 7 -4 -3 -13 -1 -21 5 -10
6 -11 9 -2 9 6 0 12 5 12 11 0 6 -7 9 -15 5 -8 -3 -14 -2 -13 2 2 4 -6 19 -16
34 -10 15 -15 32 -11 37 3 6 1 20 -5 31 -6 11 -7 20 -3 19 17 -3 33 1 32 9 -2
13 1 22 9 22 4 0 8 -13 9 -30z m387 4 c3 -8 2 -12 -4 -9 -6 3 -10 10 -10 16 0
14 7 11 14 -7z m-133 -137 c-10 -9 -11 -8 -5 6 3 10 9 15 12 12 3 -3 0 -11 -7
-18z"/>
<path d="M4140 1150 c0 -11 2 -20 4 -20 2 0 6 9 9 20 3 11 1 20 -4 20 -5 0 -9
-9 -9 -20z"/>
<path d="M3756 142 c-3 -4 4 -9 15 -9 23 -2 25 3 4 10 -8 4 -16 3 -19 -1z"/>
<path d="M5059 1293 c-13 -16 -12 -17 4 -4 9 7 17 15 17 17 0 8 -8 3 -21 -13z"/>
<path d="M5021 1234 c0 -11 3 -14 6 -6 3 7 2 16 -1 19 -3 4 -6 -2 -5 -13z"/>
<path d="M4713 1225 c0 -8 4 -15 9 -15 4 0 8 4 8 9 0 6 -4 12 -8 15 -5 3 -9
-1 -9 -9z"/>
<path d="M4996 1215 c-3 -9 0 -15 9 -15 9 0 12 6 9 15 -4 8 -7 15 -9 15 -2 0
-5 -7 -9 -15z"/>
<path d="M3542 1136 c7 -8 15 -12 17 -11 5 6 -10 25 -20 25 -5 0 -4 -6 3 -14z"/>
<path d="M4925 1030 c3 -5 8 -10 11 -10 2 0 4 5 4 10 0 6 -5 10 -11 10 -5 0
-7 -4 -4 -10z"/>
<path d="M3416 731 c-4 -5 -2 -12 3 -15 5 -4 12 -2 15 3 4 5 2 12 -3 15 -5 4
-12 2 -15 -3z"/>
<path d="M3376 714 c-11 -8 -16 -14 -10 -14 13 0 39 18 34 24 -3 2 -14 -2 -24
-10z"/>
<path d="M3310 690 c0 -5 7 -7 15 -4 8 4 15 8 15 10 0 2 -7 4 -15 4 -8 0 -15
-4 -15 -10z"/>
<path d="M4605 484 c1 -13 -2 -24 -6 -24 -5 0 -9 -7 -9 -15 0 -8 -5 -15 -11
-15 -6 0 -9 -6 -6 -12 2 -7 -2 -25 -10 -40 -12 -25 -12 -28 2 -28 8 0 16 5 16
10 2 13 6 29 8 33 2 1 4 13 7 26 2 14 9 30 15 37 6 7 8 17 5 23 -3 5 -1 11 6
13 8 3 6 6 -4 10 -12 5 -15 1 -13 -18z"/>
<path d="M1875 417 c-15 -12 -16 -15 -4 -22 8 -5 11 -5 7 0 -4 4 0 14 10 21
23 18 11 18 -13 1z"/>
<path d="M4057 175 c-8 -8 -18 -11 -22 -7 -5 4 -5 1 -1 -6 6 -11 12 -10 27 4
10 9 19 19 19 21 0 7 -9 2 -23 -12z"/>
</g>
</svg>
